<svg id="Layer_1" data-name="Layer 1" xmlns="http://www.w3.org/2000/svg" xmlns:xlink="http://www.w3.org/1999/xlink" viewBox="0 0 650 563.3"><defs><style>.cls-1{fill:none;}.cls-2{fill:#f5f5f5;}.cls-3{clip-path:url(#clip-path);}.cls-4{fill:#fb0;}.cls-5{fill:#999;}.cls-6{fill:#fff;}.cls-7{fill:#ddd;}.cls-8{fill:#bbb;}.cls-9{fill:#444;}</style><clipPath id="clip-path"><path class="cls-1" d="M596.44,330.86c-3.71-10.85-8.34-21.43-11-32.63a224.83,224.83,0,0,1-5.51-36c-1.64-23.83,1.08-47.78-.63-71.62-.84-11.54-2.86-23-7.16-33.81a174.52,174.52,0,0,0-15.67-29.83C544.9,109,526.28,96,507,87.5c-20.76-9.17-43.72-12.66-66.15-14.72-23.72-2.17-47.53-2.92-71.24-5.13-12.33-1.15-24.65-2.45-36.85-4.57a301.15,301.15,0,0,1-34.62-8.57c-43.26-13-92.36-25-135.58-5.34a95.9,95.9,0,0,0-25.3,16.56c-7.76,7.14-13.85,15.66-19.4,24.56a143.24,143.24,0,0,0-14,28.53c-3.83,11-6.19,22.39-9.37,33.54-6.41,22.53-17.58,42.8-31.57,61.49-12.35,16.51-26,32.29-35.62,50.63-4.67,8.89-9,18.75-10,28.83-.58,5.77,0,11.57.6,17.32S19,322.11,20,327.78c2.07,11.31,7.37,22.3,12.26,32.65a168.93,168.93,0,0,0,17.65,28.65,190.08,190.08,0,0,0,21.33,24c4.28,4.08,8.24,8.49,12.51,12.58a159.18,159.18,0,0,0,12.69,10.47,174.25,174.25,0,0,0,28.36,17.36c9.73,4.91,20,9.1,30.92,10.45a103,103,0,0,0,15.48,1.19,36.61,36.61,0,0,0,6.67-.88l1-.21a1.49,1.49,0,0,0,.32,2.28c1.35.84,2.84.64,4.32.36,1.68-.3,3.4-.35,5.1-.63a112.51,112.51,0,0,1,11.9-1c4.09-.24,8.17-.23,12.26-.22s8.19-.27,12.22,0c1.86.12,3.67.66,5.52.83,2,.2,4-.06,6.08,0s4.13.53,6.21.7,3.92.19,5.89.19a103.87,103.87,0,0,1,12.09.54c4,.47,7.91,1.28,11.91,1.61,3.4.29,6.82.35,10.23.36a50.9,50.9,0,0,0,9.95.33c1.56-.1,3.14-.17,4.69-.4l.12,0a1.45,1.45,0,0,0,1.19-.25,24.75,24.75,0,0,1,3.84-.6c3.66-.13,7.32.17,11,0s7.13-.51,10.69-.7c7.3-.37,14.62.1,21.92-.09,3.62-.09,7.19-.84,10.82-.85H368c14.93,0,29.87,0,44.8,0,7.43,0,14.86,0,22.28.3s14.82,1.06,22.25,1.25c8.2.22,16.4.14,24.6.14h12c3.59,0,7.12-.25,10.42-1.74a1.33,1.33,0,0,0,2,.68c2.05-1.37,4.39-1.57,6.77-1.92,3-.44,6-1.05,9-1.64,5.65-1.12,11.35-1.66,17-2.51a67.72,67.72,0,0,0,16.24-4.75c4.82-2,9.8-3.89,14.06-7a69.59,69.59,0,0,0,11.39-10.78,64.24,64.24,0,0,0,4.68-5.73c1.55-2.25,2.43-4.86,3.78-7.21,2.55-4.46,5.42-8.39,7.26-13.24a162.31,162.31,0,0,0,4.95-16.32C607.18,374.83,603.45,351.37,596.44,330.86Zm-415.7,132.9a6.44,6.44,0,0,1,2,.06A2.83,2.83,0,0,1,180.74,463.76Z"/></clipPath></defs><title>truck-insurance</title><path class="cls-2" d="M596.44,330.86c-3.71-10.85-8.34-21.43-11-32.63a224.83,224.83,0,0,1-5.51-36c-1.64-23.83,1.08-47.78-.63-71.62-.84-11.54-2.86-23-7.16-33.81a174.52,174.52,0,0,0-15.67-29.83C544.9,109,526.28,96,507,87.5c-20.76-9.17-43.72-12.66-66.15-14.72-23.72-2.17-47.53-2.92-71.24-5.13-12.33-1.15-24.65-2.45-36.85-4.57a301.15,301.15,0,0,1-34.62-8.57c-43.26-13-92.36-25-135.58-5.34a95.9,95.9,0,0,0-25.3,16.56c-7.76,7.14-13.85,15.66-19.4,24.56a143.24,143.24,0,0,0-14,28.53c-3.83,11-6.19,22.39-9.37,33.54-6.41,22.53-17.58,42.8-31.57,61.49-12.35,16.51-26,32.29-35.62,50.63-4.67,8.89-9,18.75-10,28.83-.58,5.77,0,11.57.6,17.32S19,322.11,20,327.78c2.07,11.31,7.37,22.3,12.26,32.65a168.93,168.93,0,0,0,17.65,28.65,190.08,190.08,0,0,0,21.33,24c4.28,4.08,8.24,8.49,12.51,12.58a159.18,159.18,0,0,0,12.69,10.47,174.25,174.25,0,0,0,28.36,17.36c9.73,4.91,20,9.1,30.92,10.45a103,103,0,0,0,15.48,1.19,36.61,36.61,0,0,0,6.67-.88l1-.21a1.49,1.49,0,0,0,.32,2.28c1.35.84,2.84.64,4.32.36,1.68-.3,3.4-.35,5.1-.63a112.51,112.51,0,0,1,11.9-1c4.09-.24,8.17-.23,12.26-.22s8.19-.27,12.22,0c1.86.12,3.67.66,5.52.83,2,.2,4-.06,6.08,0s4.13.53,6.21.7,3.92.19,5.89.19a103.87,103.87,0,0,1,12.09.54c4,.47,7.91,1.28,11.91,1.61,3.4.29,6.82.35,10.23.36a50.9,50.9,0,0,0,9.95.33c1.56-.1,3.14-.17,4.69-.4l.12,0a1.45,1.45,0,0,0,1.19-.25,24.75,24.75,0,0,1,3.84-.6c3.66-.13,7.32.17,11,0s7.13-.51,10.69-.7c7.3-.37,14.62.1,21.92-.09,3.62-.09,7.19-.84,10.82-.85H368c14.93,0,29.87,0,44.8,0,7.43,0,14.86,0,22.28.3s14.82,1.06,22.25,1.25c8.2.22,16.4.14,24.6.14h12c3.59,0,7.12-.25,10.42-1.74a1.33,1.33,0,0,0,2,.68c2.05-1.37,4.39-1.57,6.77-1.92,3-.44,6-1.05,9-1.64,5.65-1.12,11.35-1.66,17-2.51a67.72,67.72,0,0,0,16.24-4.75c4.82-2,9.8-3.89,14.06-7a69.59,69.59,0,0,0,11.39-10.78,64.24,64.24,0,0,0,4.68-5.73c1.55-2.25,2.43-4.86,3.78-7.21,2.55-4.46,5.42-8.39,7.26-13.24a162.31,162.31,0,0,0,4.95-16.32C607.18,374.83,603.45,351.37,596.44,330.86Zm-415.7,132.9a6.44,6.44,0,0,1,2,.06A2.83,2.83,0,0,1,180.74,463.76Z"/><g class="cls-3"><path class="cls-4" d="M608.86,388.75a9,9,0,0,1-4-5c-.82-2.43.06-4.87.89-7.19,1.16-3.18,2.86-6.24,3.6-9.56.58-2.62,0-6.73-3.71-5.73-4.28,1.13-7,6.1-12,4.55a6,6,0,0,1-4-4.07,20.24,20.24,0,0,1-1.07-6.93c.21-2.58,2.19-4.92,3.27-7.22s2.23-4.7,3.56-7a19.15,19.15,0,0,0,2.49-6c.49-2.62.53-5.33,1-8a44,44,0,0,0,1-7.83,31.17,31.17,0,0,0-1.33-7c-.7-2.73-1.5-5.42-2.3-8.12-.56-1.87-.79-3.82-1.39-5.67a5.73,5.73,0,0,0-2.32-3.43,3.31,3.31,0,0,0-4,.39c-1.94,2.07-.67,5.7-1,8.22a40,40,0,0,1-1.93,7.25c-.73,2.38-1.36,4.81-3,6.72a27.89,27.89,0,0,1-5.16,4.28,32.76,32.76,0,0,1-7.58,3.61c-4.76,1.76-8,4.83-11.66,8.21-.71.66-1.56,1.6-2.37.74-.65-.68-.46-2-.33-2.81.34-2,1.1-4,.27-6.08l-.06-.13a35.33,35.33,0,0,0,.67-5.49c.49-1,1-1.92,1.56-2.87a19,19,0,0,0,2.49-6c.49-2.62.53-5.33,1-8a44.11,44.11,0,0,0,1-7.84,31.4,31.4,0,0,0-1.34-7c-.7-2.72-1.5-5.41-2.3-8.11-.55-1.87-.78-3.82-1.38-5.67a5.79,5.79,0,0,0-2.33-3.43,3.31,3.31,0,0,0-4,.39c-1.94,2.07-.67,5.7-1,8.22a40.46,40.46,0,0,1-1.92,7.24c-.74,2.38-1.37,4.81-3,6.73a27.14,27.14,0,0,1-5.16,4.27,32.36,32.36,0,0,1-7.58,3.61c-4.76,1.77-8,4.84-11.66,8.22-.71.66-1.55,1.6-2.37.74-.64-.69-.46-2-.32-2.81.33-2.05,1.09-4.05.26-6.09l-.06-.12a32.19,32.19,0,0,0,.68-6.16,31.4,31.4,0,0,0-1.34-7c-.7-2.72-1.5-5.41-2.3-8.11-.55-1.87-.78-3.82-1.38-5.67a5.79,5.79,0,0,0-2.33-3.43,3.31,3.31,0,0,0-4,.39c-1.94,2.07-.67,5.7-1,8.22a40.46,40.46,0,0,1-1.92,7.24c-.74,2.38-1.37,4.81-3,6.73a27.14,27.14,0,0,1-5.16,4.27,32.36,32.36,0,0,1-7.58,3.61c-4.76,1.77-8,4.84-11.66,8.22-.71.66-1.55,1.6-2.37.74-.64-.69-.46-2-.32-2.81.33-2.05,1.09-4.05.26-6.09-1.78-4.35-6.1-.4-7.89,1.76-.65.79-1.29,1.6-1.89,2.44.53-.91,1.07-1.79,1.48-2.67,1.12-2.38,2.24-4.7,3.56-7a19,19,0,0,0,2.49-6c.5-2.62.53-5.33,1-8a44.11,44.11,0,0,0,1-7.84,31.4,31.4,0,0,0-1.34-7c-.7-2.72-1.5-5.41-2.3-8.11-.55-1.87-.78-3.82-1.38-5.67a5.79,5.79,0,0,0-2.33-3.43,3.31,3.31,0,0,0-4,.39c-1.94,2.07-.66,5.7-1,8.22a41.35,41.35,0,0,1-1.93,7.24c-.74,2.38-1.37,4.81-3,6.73a27.14,27.14,0,0,1-5.16,4.27,32,32,0,0,1-7.58,3.61c-4.76,1.77-8,4.84-11.66,8.22-.71.66-1.55,1.6-2.37.74-.64-.69-.46-2-.32-2.81.33-2.05,1.1-4.05.26-6.09l-.06-.12a32.19,32.19,0,0,0,.68-6.16,31.4,31.4,0,0,0-1.34-7c-.7-2.72-1.5-5.41-2.3-8.11-.55-1.87-.78-3.82-1.38-5.67a5.79,5.79,0,0,0-2.33-3.43,3.31,3.31,0,0,0-4,.39c-1.94,2.07-.66,5.7-1,8.22a41.35,41.35,0,0,1-1.93,7.24c-.74,2.38-1.37,4.81-3,6.73a27.14,27.14,0,0,1-5.16,4.27,32,32,0,0,1-7.58,3.61c-4.76,1.77-8,4.84-11.66,8.22-.71.66-1.55,1.6-2.37.74-.64-.69-.46-2-.32-2.81.33-2.05,1.1-4.05.26-6.09-1.78-4.35-6.09-.4-7.89,1.76-2.68,3.24-5.14,6.86-6,11.07-.89,4.58,1,9.26-.2,13.85a9.58,9.58,0,0,1-1.57,3.21c-.92.75-1.89,1.44-2.86,2.11a21.93,21.93,0,0,1-2.69,1.58,5.78,5.78,0,0,1-3.68-.56c-2.17-1.11-2.86-3.44-3.75-5.52a15.92,15.92,0,0,0-3.6-5.31c-1.9-1.83-5.5-4.8-7.86-2-1.76,2.08-1.42,5.53-1.45,8.07a23.24,23.24,0,0,1-.89,5.45c-2-.1-4.4,2.23-5.64,3.72-.77.93-1.52,1.91-2.22,2.91-1.07-.08-2.15-.19-3.22-.33-5.63-.79-11.21-1.86-16.86-2.57a127.09,127.09,0,0,0-17.34-1c-5.79,0-11.65.3-17.44-.12-11.11-.81-20.61-6-30.75-10a34.35,34.35,0,0,0-15-2.85c-5.64.37-11.29,1.13-16.88,2a2.88,2.88,0,0,0-.95-.92c-1.74-1-3.31.34-4.45,1.87-1.37.25-2.73.51-4.09.78l-2.15-.88a34.35,34.35,0,0,0-15-2.85c-5.64.37-11.29,1.13-16.88,2a2.88,2.88,0,0,0-.95-.92c-1.74-1-3.31.34-4.45,1.87-3.87.72-7.72,1.51-11.59,2.15-.64-2.65-1.72-5.32-4.89-5.45s-4.67,3.59-5.38,6.13c0,.12-.05.23-.08.34-2.69.14-5.38.22-8.08.38-2.52.15-5.21.25-7.87.51,1.34-5.18-1-10.22-1.23-15.41a31.06,31.06,0,0,1,0-3.61c.11-1.18.73-2.14.9-3.28.23-1.5-.3-3.73-1.72-4.56-2.54-1.49-4.69,2.06-5.73,3.82a28.3,28.3,0,0,0-4,11.39,66,66,0,0,0-.85,7.53c0,2.63-1.65,4.6-3.31,6.48a8.19,8.19,0,0,1-.64-1.71c-.7-3.15-1.22-7.83-5.44-8-3.21-.13-4.67,3.59-5.38,6.13-1,3.7-.49,7.23-.15,11a12.84,12.84,0,0,1-.42,5.85,9,9,0,0,1-5.25,4.69,8.71,8.71,0,0,1-7.22.12,8,8,0,0,1-.89-.53,26.79,26.79,0,0,1,0-3.23c.11-1.17.73-2.13.9-3.27.23-1.51-.31-3.74-1.73-4.57s-2.46-.21-3.46.73c.13-.43.28-.87.46-1.33,1-2.59.89-5.22,1.66-7.85,1.55-5.3-.93-10.45-1.14-15.76a31.06,31.06,0,0,1,0-3.61c.11-1.18.73-2.14.9-3.28.23-1.5-.3-3.73-1.72-4.56-2.54-1.49-4.69,2.06-5.73,3.82a28.3,28.3,0,0,0-4,11.39,66,66,0,0,0-.85,7.53c0,2.94-2,5-3.88,7.13-3.17,3.62-6.32,7.78-7,12.68A45.35,45.35,0,0,0,66,341.59a14.77,14.77,0,0,0-1.46,3.62c-1,3.69-.49,7.22-.15,11,0,.28,0,.56.07.84a23.11,23.11,0,0,1-1.89,5.42,32.88,32.88,0,0,0-1.62,3.1,12.17,12.17,0,0,1-2.23,1.17,8.75,8.75,0,0,1-7.22.13,11.47,11.47,0,0,1-4.7-5.23c-1.27-2.51-1-4.43,0-7s.89-5.22,1.66-7.85c1.55-5.3-.93-10.45-1.14-15.76a31.23,31.23,0,0,1,0-3.62c.11-1.17.73-2.13.9-3.27.23-1.51-.31-3.74-1.73-4.57-2.53-1.48-4.69,2.07-5.73,3.83a28.29,28.29,0,0,0-4,11.38,66.39,66.39,0,0,0-.85,7.54c0,2.93-2.05,5-3.88,7.13-3.17,3.62-6.32,7.78-7,12.67a45.41,45.41,0,0,0,1,15.28,28.65,28.65,0,0,1,.73,7.49,10.13,10.13,0,0,1-.29,2.75c-.37,1.14-1,2.17-1.45,3.29-.9,2.4-1.16,4.92-2.45,7.17a17.32,17.32,0,0,0-2.56,6.33,31.38,31.38,0,0,0,1.54,14.92c1.72,4.79,3.5,9.34,6.75,13.34,1.66,2.05,3.4,3.95,4.92,6.12S36,443,37.54,445.13a15.87,15.87,0,0,0,4.94,4.17c1.92,1.25,2.67,3.34,4.29,4.86s3.65,2,5.59,2.64c1,.35,1.94.81,2.93,1.13s2.28.12,3,.78a1.4,1.4,0,0,0,1.9.13,1.77,1.77,0,0,0,.45.26,13.08,13.08,0,0,0,6.68.58,41.21,41.21,0,0,1,8.8-.61c5.8.38,11.45,1.79,17.28,1.95s11.92-.33,17.85.31c2.6.28,5.11,1,7.67,1.45a49.75,49.75,0,0,0,8.7.72,35.88,35.88,0,0,0,7.24-.68,25.86,25.86,0,0,1,9.48.32c5.59.95,10.94,1.89,16.64,1.37,2.75-.25,5.47-.67,8.2-1.05l1.94,0a35.88,35.88,0,0,0,7.24-.68,25.86,25.86,0,0,1,9.48.32c5.59.95,10.94,1.89,16.64,1.37,2.7-.25,5.38-.65,8.06-1,1.54,1.37,3.58,1.89,5.49,2.56,1,.34,1.94.8,2.93,1.12s2.28.13,3,.79a1.4,1.4,0,0,0,1.9.12,1.54,1.54,0,0,0,.45.27,13.08,13.08,0,0,0,6.68.58,41.11,41.11,0,0,1,8.79-.61c5.81.38,11.46,1.79,17.29,1.95s11.92-.33,17.84.31c2.6.27,5.11,1,7.68,1.45a48.72,48.72,0,0,0,8.7.71,35.17,35.17,0,0,0,7.24-.68,25.86,25.86,0,0,1,9.48.33c5.59.95,10.94,1.89,16.64,1.36,2.75-.25,5.47-.66,8.2-1.05.64,0,1.29,0,1.94,0a35.17,35.17,0,0,0,7.24-.68,25.86,25.86,0,0,1,9.48.33c5.59.95,10.94,1.89,16.64,1.36s11.06-1.68,16.66-1.94c3.79,0,7.57,0,11.35,0q3.06,0,6.12,0h21.33c2.88.07,5.77.18,8.65.37,11.8.75,23.53,2.59,35.34,3.14,11.41.54,22.86,1,34.27.66a42.1,42.1,0,0,0,7.64-.75l1.59.09c11.41.54,22.86,1,34.27.66,4.48-.13,9-.4,12.9-2.76s7.05-5.94,10.21-9.28,7.12-6.16,10.45-9.52a48.14,48.14,0,0,0,8.64-11.84,38.92,38.92,0,0,0,2.5-6.05c.86-2.74,1.29-5.64,3.22-7.9,3.31-3.89,7-7.36,10-11.53a50.45,50.45,0,0,0,5.29-9.64,29.49,29.49,0,0,0,2.79-10.59C613.38,393.19,611.82,390.79,608.86,388.75Z"/></g><path class="cls-2" d="M457.67,84.13c0-.85,0-1.71,0-2.56a6.16,6.16,0,0,0-.2-2.14,3.9,3.9,0,0,0-1.53-2A1.3,1.3,0,0,0,455,77l-.45-.18a1.35,1.35,0,0,0-1.2.2c-2.29.08-4.57.29-6.86.3-2.66,0-5.33,0-8,0s-5.16.37-7.75.33c-1.27,0-2.54-.08-3.8,0s-2.39.34-3.6.4c-9.68.43-19.4-.31-29.08,0-4.79.15-9.59.27-14.37.56s-9.73.08-14.58.08-9.83,0-14.75.15-9.71.46-14.58.52c-6.21.07-12.44,0-18.66,0l-.26,0h-10.6l-.26,0c-6.22,0-12.44,0-18.66,0-4.86-.06-9.72-.34-14.58-.52s-9.83-.15-14.75-.15-9.73.21-14.58-.08-9.57-.41-14.36-.56c-9.69-.31-19.41.43-29.08,0-1.22-.06-2.4-.33-3.61-.4s-2.53,0-3.79,0c-2.59,0-5.17-.32-7.76-.33s-5.32,0-8,0c-2.29,0-4.57-.22-6.85-.3a1.35,1.35,0,0,0-1.2-.2,4.69,4.69,0,0,0-.45.18,1.3,1.3,0,0,0-.9.49,4,4,0,0,0-1.53,2,6.41,6.41,0,0,0-.2,2.14c0,.85,0,1.71,0,2.56a25.18,25.18,0,0,0,.29,4.83,22,22,0,0,1,0,4.44,1.51,1.51,0,0,0,1.5,1.5,49,49,0,0,1,5.77.66,74.9,74.9,0,0,0-.13,8.61c0,3.78-.24,7.54-.31,11.31a96,96,0,0,0,.19,10.86c.32,3.63.12,7.33.12,11,0,7.49,0,15,0,22.45,0,3.55.35,7.08.33,10.63q0,5.67,0,11.35,0,6.38,0,12.74v6.11c0,.81,0,1.63,0,2.45,0,.42.08.85.09,1.27a1.4,1.4,0,0,0-.25,1.75l.25.45c0,1.06,0,2.12,0,3.17,0,1.51.1,3,0,4.54s-.44,3.11-.41,4.67c0,.74.16,1.48.11,2.22s-.28,1.31-.37,2c-.21,1.44,0,2.92-.15,4.37a16.78,16.78,0,0,0-.1,4.64,16.47,16.47,0,0,1,.51,3.28,4.21,4.21,0,0,0-.54.5c-1.29,1.43.82,3.55,2.12,2.12a8.67,8.67,0,0,1,2.13-1.33c.89-.53,1.74-1.12,2.64-1.64,1.91-1.1,3.88-2.11,5.86-3.09a126.9,126.9,0,0,1,12-5.18c8.32-3.08,16.85-5,25.49-6.94a271.79,271.79,0,0,1,27.54-4.14c9.38-1.1,18.79-1.73,28.21-2.34,19-1.22,37.95-2.05,56.94-1.8s38,1.09,56.94,2.31c9.32.6,18.66,1.27,28,2.09a117.17,117.17,0,0,1,13.7,1.88l3.2.67c1.12.23,1.37,1,2.24,1.66,1.44,1.08,3.34,1.48,4.86,2.5.13.08.62.53.88.69a2.33,2.33,0,0,0,.2,2.11,1.49,1.49,0,0,0,2.7-.31c.95,1.63,3.5.14,2.57-1.54-.68-1.21-.05-3-.25-4.35a6.8,6.8,0,0,0-.78-2.08,5.22,5.22,0,0,1-.48-2.13c-.1-2.81,0-5.63,0-8.44,0,0,0,0,0,0l.28-.51a1.4,1.4,0,0,0-.24-1.75c0-.42.06-.85.08-1.27.05-.82,0-1.64,0-2.45v-6.11q0-6.36,0-12.74c0-3.79,0-7.57,0-11.35,0-3.55.34-7.08.34-10.63V137.31c0-3.64-.2-7.34.13-11a100.88,100.88,0,0,0,.19-10.86c-.08-3.77-.35-7.53-.32-11.31a74.9,74.9,0,0,0-.12-8.61,48.83,48.83,0,0,1,5.76-.66,1.38,1.38,0,0,0,.93-.33,1.34,1.34,0,0,0,.57-1.17,22.72,22.72,0,0,1,.05-4.44A24.4,24.4,0,0,0,457.67,84.13Z"/><path class="cls-5" d="M454.4,85.24a1.29,1.29,0,0,0,.25-1.76,20.17,20.17,0,0,0,.17-2.2,1.51,1.51,0,0,0-1.9-1.45,2.72,2.72,0,0,0-1,.58l-.15-.14a1.54,1.54,0,0,0-2.06.54,6.38,6.38,0,0,0-.7,2c-.17.7-.41,1.37-.61,2-.43,1.54-.71,3.11-1.29,4.61-1,2.51-3,3.91-5.1,5.37a1.69,1.69,0,0,0-.65.85l-1.66-.23c-.37,0-.75-.08-1.12-.1a1.4,1.4,0,0,0-1.25-.73c-6.65-.12-13.3-.29-19.95-.45A1.48,1.48,0,0,0,416,92.24c-4.76-.09-9.51-.34-14.27-.35s-9.62.28-14.42.57c-4.54.27-9.09.56-13.64.74L369.74,93c-3.29-.14-6.58.06-9.86-.08a1.27,1.27,0,0,0-1.4,1c-1.34,0-2.69.07-4,.06A1.48,1.48,0,0,0,353.09,96c-7.19,0-14.38,0-21.58,0l-4.7.06c-4.07-.16-8.15-.16-12.22-.15-2.6,0-5.19,0-7.78.11-1.18.07-2.35.16-3.52.22-6.56,0-13.11-.16-19.67-.27-7.92-.15-15.84,0-23.76-.11-3.49,0-7-.08-10.47-.13a1.38,1.38,0,0,0-1.1-.49H218c-1.64,0-3.28,0-4.91,0a15,15,0,0,0-2.12,0h-5c-3.75,0-7.5,0-11.25-.24-1.33-.07-2.66-.1-4-.11a1.76,1.76,0,0,0-1-1.34c-3.49-1.35-7.41-1.54-10.75-3.29a8.73,8.73,0,0,1-2.8-2.3,1.24,1.24,0,0,0,.06-1.14A30,30,0,0,1,174.76,82a1.43,1.43,0,0,0-.43-.73c0-.2-.1-.4-.13-.61a1.55,1.55,0,0,0-1.5-1.5,1.52,1.52,0,0,0-1.12.52,1.37,1.37,0,0,0-1.38.67,1.43,1.43,0,0,0-1.95,1c-.05.25-.11.51-.16.76s-.36.59-.49.84a6.34,6.34,0,0,0-.54,1.45,5.47,5.47,0,0,0,.22,3.1,7.58,7.58,0,0,0,.45,1c.18,1.59.38,3.42,1.59,4.51a1.52,1.52,0,0,0,2.35-.31,29.35,29.35,0,0,0,6,2.65l-.5,0c-1.92.08-1.93,3.08,0,3l1.67-.06a1.48,1.48,0,0,0,1.07,1.31,27.39,27.39,0,0,0,5.51.12c2.19,0,4.38,0,6.57-.06q6.76-.18,13.54-.32c6.8-.14,13.59-.41,20.38-.62,2.56,0,5.12,0,7.68,0,7.87,0,15.73.15,23.6.25s15.83,0,23.75.1c5.87.06,11.74.23,17.61.3a1,1,0,0,0,.17,0,36.62,36.62,0,0,0,4.32,0h3.34c8.19,0,16.37-.07,24.56,0a1.38,1.38,0,0,0,.91-.28c8.41-.1,16.82-.17,25.22-.11,9.7.06,19.39.3,29.08.35s19.6-.25,29.37.07c2.68.08,5.36.27,8.05.31s5.31-.14,8-.26c5.54-.26,11.12,0,16.67.26,2,.08,1.86-2.77,0-3-1-.12-2-.26-3-.41l.08-.06a1.8,1.8,0,0,0,.4,0,4.25,4.25,0,0,0,1.56-.66c.45,0,.9-.05,1.35-.08a4.51,4.51,0,0,0,3.53-1.37,2.59,2.59,0,0,0,.19-.31,1.58,1.58,0,0,0,1.43-1.47c0-.13,0-.26,0-.38a1.77,1.77,0,0,0,.3-.52c.44-1.21.11-2.76.13-4,0-.25,0-.5,0-.74C454.25,86.17,454.32,85.71,454.4,85.24Z"/><path class="cls-6" d="M177.71,94c-2.07,1.89-.81,5-1.29,7.44a15.82,15.82,0,0,0-.58,4.93c.19,1.75.87,3.44.8,5.21s-.61,3.24-.78,4.88a49.28,49.28,0,0,0,0,5.7,18,18,0,0,1-.26,5.24,21.88,21.88,0,0,0-.69,5.23c-.21,7.49.61,15,.91,22.49.31,7.88,0,15.79.09,23.68,0,2.06.05,4.12-.1,6.17s-.65,4.16-.82,6.27c-.31,4,.17,8,.19,12a1.5,1.5,0,0,0,3,0c0-3.58-.39-7.14-.26-10.71s1-6.91,1-10.44c.11-7.7-.06-15.41-.06-23.11,0-3.67-.27-7.3-.51-10.95s-.24-7.34-.39-11c-.07-1.78-.12-3.57,0-5.35s.68-3.39.9-5.14c.44-3.49-.47-7.07,0-10.57a25.32,25.32,0,0,0,.71-5.27c-.12-1.92-.94-3.76-.86-5.7.06-1.75.82-3.4.81-5.18,0-1-.56-3,.25-3.73C181.25,94.76,179.13,92.64,177.71,94Z"/><path class="cls-7" d="M447.8,214.57a11.09,11.09,0,0,1,1.35-4c1.2-2.09-.06-3.49-1.77-4.39a1.5,1.5,0,0,0-.14-2.5,2.8,2.8,0,0,0-2.53-.22l-.31.12h-.09a5,5,0,0,0-1.37.37l-.26,0-1.18.2c-.31-.45-.63-.9-.89-1.34-1.2-2.06-2.12-4.35-3.73-6.13l-.17-.17a43.78,43.78,0,0,0-3.24-3.43,11.2,11.2,0,0,0-2.22-1.84c-.86-.51-1.84-.78-2.7-1.31a7.67,7.67,0,0,0-2.3-1.12c-1-.25-2.1-.33-3.14-.49-2.29-.35-4.59-.58-6.88-.84s-4.69,0-7-.12c-4.6-.23-9.18-.51-13.77-.81-2.71-.18-5.46.12-8.16-.15a1.43,1.43,0,0,0-.94-.33c-1.59,0-3.16-.17-4.75-.28s-3.43-.06-5.15-.08c-3.44,0-6.89-.22-10.34-.28-7-.13-13.91-.3-20.87-.42-13.93-.22-27.89,0-41.82.29-7,.13-14,.28-20.93.39s-14,.13-21,.49c-3.85.2-7.7.54-11.54.9-10.06,0-20.12,0-30.14.66-1.19,0-2.39,0-3.59-.07a85.32,85.32,0,0,1-10.11-.6c-2.89-.45-5.93-.71-8.6.77a10.83,10.83,0,0,0-1.88,1.36,10,10,0,0,0-4.4,1.53,7.84,7.84,0,0,0-3,4.2,0,0,0,0,0,0,0,5.07,5.07,0,0,0-.49,1.17,5.31,5.31,0,0,0-.16,1.11,15.33,15.33,0,0,0-1.25,3.79,9.74,9.74,0,0,0-.37,1c-1.73,0-3.45,0-5.18,0a18,18,0,0,1-2.32,0,12.66,12.66,0,0,0-2.38-.35,1.53,1.53,0,0,0-.47,2.95c0,1.8,0,3.61,0,5.42,0,.36,0,.73-.08,1.09-.27,2.27-.88,4.4-.53,6.7v0c0,.1,0,.22-.07.32-.36,1.44-1,2.74-1,4.27,0,1,1.3,2,2.26,1.29a5.4,5.4,0,0,0,.52-.43,1.39,1.39,0,0,0,2.13.06c4.94-6.09,10.17-11.92,15.41-17.75,1.05-.5,2-1.13,2.16-2.24a1,1,0,0,0,0-.17l1.55-1.74a1.56,1.56,0,0,0,1-.82l1.42-.05c3.88-.07,7.76,0,11.64,0l24.08,0c7.91,0,15.8.36,23.7.58s15.87.26,23.8.29,16.05,0,24.07.22,16.05.46,24.09.39c15.9-.16,31.78-1.2,47.69-1.1,8.82.05,17.59-.55,26.41-.16,4.31.19,8.64.35,12.93.81,4,.43,8.13,1.26,11.4,3.76a1.23,1.23,0,0,0,1.59-.07c.67.58,1.31,1.2,1.94,1.81A62.24,62.24,0,0,1,439,212.4c.37.64.74,1.27,1.13,1.9a37.74,37.74,0,0,0,5.34,6.68c1.26,1.29,3-.34,2.35-1.82a6.5,6.5,0,0,1-.07-2.29A19.67,19.67,0,0,1,447.8,214.57Z"/><path class="cls-5" d="M466.68,467.08c.12-4.22.33-9-1.2-13-.67-1.75-1.8-3.43-2.29-5.23A5.79,5.79,0,0,0,462,446.5a6.63,6.63,0,0,0-1.13-1c0-1.09-1.05-2.17-2.17-1.37l-.51.36a1.53,1.53,0,0,0-.3,2.35,2.51,2.51,0,0,0,.32.33c-.26.78-.68,1.52-.93,2.3a3.94,3.94,0,0,1-1.63,2.12,15.6,15.6,0,0,1-5.48,2.26c-4.58,1.1-9.35,1.48-14,2.19-5.06.78-10.25.37-15.34.6s-10.17.54-15.28.55h-8l-.24,0q-26.7.07-53.39.67c-2.45.06-4.87.34-7.32.33-1.23,0-2.46.07-3.69.16a1.4,1.4,0,0,0-.66-.16c-4.39-.05-8.75-.43-13.14-.27s-8.71.55-13.06,1H306c-2.24-.05-4.49-.13-6.73-.27s-4.62-.13-6.94-.06c-1.16,0-2.33-.09-3.5-.17q-7.59-.51-15.2-.75c-3.33-.11-6.67-.14-10-.18-2.06-.2-4.12-.39-6.19-.51a116.61,116.61,0,0,0-14.35-.36c-9.61.62-19.22.59-28.84.59a1.38,1.38,0,0,0-1.21.64c-1.24-.12-2.49-.21-3.73-.28a60.6,60.6,0,0,0-7.38.13c-2.37.13-4.78-.15-7.16-.15s-5-.47-7.47-.63c-2-.12-4.18.42-6-.4a65.47,65.47,0,0,0-6.57-3,23.09,23.09,0,0,1-3.12-1.2,13.78,13.78,0,0,1-2.62-2.2c-.48-.39-1.77-.92-2.45-1.53,1.09-1,.3-3.17-1.31-2.58a4.7,4.7,0,0,0-.81.4,1.59,1.59,0,0,0-1.26,1.16,15.52,15.52,0,0,0-1.56,2.81,19.58,19.58,0,0,0-1.48,7.8c-.06,1.32-.37,2.62-.44,4s0,2.77,0,4.16c.06,2.86,0,5.72,0,8.58a56.34,56.34,0,0,0,.18,8.32c.38,2.46,0,5,.66,7.39,1.33,4.74,5.8,7.93,9.71,10.48a29.1,29.1,0,0,0,8.25,3.92,22.32,22.32,0,0,0,3.13.56c.07.05.13.11.21.16,1,.63,2.14.48,3.28.57,1.32.12,2.64.21,4,.28l.58,0a1.4,1.4,0,0,0,.17,1.17c.68,1.08,1.2,2.17,1.86,3.21a1,1,0,0,0,0,.17c.15,1.26,1.07,2.08,1.75,3.06.24.34.45.7.66,1.07l.21.39c.63,1.22,1.14,2.52,1.75,3.74,1.32,2.64,3.18,5,6,5.79l.08.07c2.18,2,4.77,2,7.48,2.63a56.13,56.13,0,0,0,9.37,1.69c3.14.2,6.31-.3,9.45-.33s6.4.08,9.6.12a63.63,63.63,0,0,0,9.86-.36c2-.28,5,.24,6.11-2,.58-1.11.25-2.26.15-3.42a35.54,35.54,0,0,1,.09-5.46,43.38,43.38,0,0,1,.75-4.7,12.32,12.32,0,0,0,.19-2.26,4.58,4.58,0,0,1,.14-2.09,1.6,1.6,0,0,0,.16-.53c.68-.19,1.37-.37,2.06-.51,1.82-.39,3.54,0,5.37.09,3.86.12,7.71.58,11.58.26s7.44-.2,11.18-.39,7.38-.22,11.08-.22c2,0,3.91,0,5.86,0s3.72.3,5.58.33,3.69-.18,5.53-.29c2-.11,4.09-.09,6.13-.08,7.8.05,15.6.05,23.4.05,4.33,0,8.76-.29,13.08,0a1.27,1.27,0,0,0,1.44,1.34c4.66-.41,9.32-.75,14-1.08a1.24,1.24,0,0,0-.45.72,10.51,10.51,0,0,0-.3,1.35,2.34,2.34,0,0,0,.06.7,6.86,6.86,0,0,0,.26,3.84c.8,2,.25,4.46.24,6.6,0,1.18,0,2.35,0,3.53a3.15,3.15,0,0,0,.72,2.31c1.44,1.47,3.87,1.05,5.71,1.08,2.64,0,5.27.28,7.9.47,5.29.37,10.64.35,15.94.32,2.54,0,5.07-.07,7.6-.06a61.48,61.48,0,0,0,7.54-.73c2.18-.26,4.65-.31,6.71-1.13a3.84,3.84,0,0,0,1.25-.77,4.37,4.37,0,0,1,1.13-.7,5,5,0,0,0,1.92-2.16c.56-1,1.28-1.81,1.83-2.77s1-2,1.58-3,1.16-1.88,1.68-2.84.66-2.13,1.27-3.11a17.59,17.59,0,0,1,1.85-2.44,4.18,4.18,0,0,1,2.48-1.68,36.4,36.4,0,0,0,7-2.21,29.16,29.16,0,0,1,3.49-1.51c1.25-.4,2.4-.95,3.61-1.43a20.55,20.55,0,0,0,3.34-1.53,23.1,23.1,0,0,0,2.91-1.55,25.85,25.85,0,0,0,5.16-5.39,13.27,13.27,0,0,0,1.61-3.13c1.1-1.14,1.08-2.77,1-4.27-.13-2.13,0-4.28,0-6.41,0-1.13,0-2.26,0-3.39s.27-2.26.33-3.4C467.2,471.3,466.61,469.21,466.68,467.08Z"/><path class="cls-6" d="M171.63,501.09a9.21,9.21,0,0,1-3.62-1.9c-1.34-1.14-2.86-2.14-4.11-3.38s-1.57-3-1.58-4.84a44.69,44.69,0,0,1,.32-5.9,49.29,49.29,0,0,0,.5-6.42v-6.87c0-4.19.56-8.42.12-12.59-.24-2.26-.71-4.13.24-6.31a18.91,18.91,0,0,1,4-5.44c1.34-1.39-.77-3.51-2.12-2.12-2.83,2.91-5.81,6.69-5.53,11,.06,1,.33,2.05.43,3.09a32.77,32.77,0,0,1,.12,3.71c0,2.28-.21,4.55-.25,6.83-.08,5,.17,9.94-.48,14.9a42.92,42.92,0,0,0-.35,6.51,9.47,9.47,0,0,0,1.61,5.58c1.3,1.76,3.3,3,5,4.37a13,13,0,0,0,4.94,2.68C172.69,504.53,173.48,501.64,171.63,501.09Z"/><path class="cls-6" d="M467.42,478.87c0-1-.11-2-.15-3-.06-1.26,0-2.52.06-3.78a43.44,43.44,0,0,0-.21-7.39,63.88,63.88,0,0,1-.55-7.44,16.34,16.34,0,0,0-1.77-7.38,9.15,9.15,0,0,0-1.88-2.71c-.58-.53-1.66-1.06-1.88-1.86a1.51,1.51,0,0,0-2.9.8c.48,1.69,1.91,2.26,3,3.48a11.46,11.46,0,0,1,2.38,6c.22,2.22,0,4.45.28,6.68a52,52,0,0,1,.63,7c0,2.25-.25,4.51-.13,6.76.05.94.18,1.89.14,2.83a15.4,15.4,0,0,1-.66,2.76c-.47,2.1,0,4.25-.21,6.36a10.69,10.69,0,0,1-2.47,5.29c-2.55,3.43-6.17,5.79-9.78,8a1.5,1.5,0,0,0,1.51,2.59,39.09,39.09,0,0,0,9.48-7.32,21.68,21.68,0,0,0,3.39-5c1-2.11.91-4.33.87-6.61a9.37,9.37,0,0,1,.24-2.94A12.89,12.89,0,0,0,467.42,478.87Z"/><path class="cls-6" d="M461.21,359.9a6.7,6.7,0,0,0-.62-3.13.44.44,0,0,0-.08-.11l-.09-.69c.14-.77.29-1.54.49-2.3a1.41,1.41,0,0,0-.9-1.74c0-1-.06-2-.06-3,0-2.26,0-4.52,0-6.78a38.42,38.42,0,0,0-.18-6.07c-.15-1-.31-1.94-.43-2.9a14.42,14.42,0,0,1,.25-2.77c.15-2.25,0-4.52.07-6.77.21-4.65.62-9.3.63-13.95a1.45,1.45,0,0,0-1.8-1.42,37,37,0,0,0,0-7.66,38.18,38.18,0,0,1-.24-5.45,44.47,44.47,0,0,0-.29-5.41c-.18-1.64,0-3.29-.16-4.93-.19-2-.49-4.05-.78-6.06-.24-1.74-.63-3.47-.79-5.22s-.23-3.76-.47-5.63-.56-3.77-.83-5.66-.35-3.78-.61-5.66c-.21-1.6-.66-3.13-1-4.7-.19-.82-.45-1.58-.69-2.38a17.91,17.91,0,0,1-.46-3.19,48.38,48.38,0,0,1-.37-6.13c0-1.74.22-3.47.07-5.2a15.57,15.57,0,0,0-1.5-5c-.47-1.06-1.08-2-1.58-3.06a1.5,1.5,0,0,0,.78-1.7,4.17,4.17,0,0,0-2.24-2.44l0,0-.29-.36c-.69-.84-1.49-1.56-2.23-2.36-1.56-1.71-3.08-3.48-4.54-5.27s-2.61-3.64-4.17-5.26c-.49-.5-1-1-1.54-1.44a10.33,10.33,0,0,0-.69-1.37c-1.07-1.72-3.1-4-5.32-3.77a1.24,1.24,0,0,0-1.34-.88l0,0a1.93,1.93,0,0,0-2.68-.15,16,16,0,0,0-2-.16c-1.81,0-3.58-.21-5.39-.31-3.51-.2-7.08,0-10.6,0H384.79q-22,0-44-.08c-3.52,0-7,.25-10.51.4a82.67,82.67,0,0,1-10.43-.58c-3.48-.3-6.95-.41-10.45-.42-3.65,0-7.29-.34-10.94-.34-7.18,0-14.37-.14-21.54.26-3.57.2-7.14,0-10.71.14s-7.11.47-10.67.68c-4,.24-8,.42-12,.41s-8-.31-12-.39c-2.88,0-5.75-.24-8.63-.34a7,7,0,0,0-2.38-.15,13.81,13.81,0,0,1-2.94-.27,34.9,34.9,0,0,0-6.78-.27,42.47,42.47,0,0,0-6.47.54,28.32,28.32,0,0,0-3.3.94,1.4,1.4,0,0,0-2.13-.09c-.41.42-.84.83-1.25,1.24a1,1,0,0,0-.23.23l-1.86,1.85a13.68,13.68,0,0,0-1.34,1,62.71,62.71,0,0,0-5.25,5.19l-.81.89a81.47,81.47,0,0,0-9.18,9.21,1.64,1.64,0,0,0,.53,2.47c-.56.59-1.12,1.19-1.7,1.77a1.36,1.36,0,0,0-.21,1.76,47.25,47.25,0,0,0-2.14,5.72c-1.2,3.48-1.36,7.24-2.05,10.84s-1.13,7.09-1.56,10.66a43.1,43.1,0,0,0-.25,5.57c0,1.82-.33,3.62-.35,5.44,0,3.72-.65,7.39-.78,11.11s-.74,7.23-1.06,10.84c-.18,1.93-.4,3.85-.59,5.77s-.19,3.85-.44,5.76-.63,3.49-.89,5.25a37.44,37.44,0,0,0-.34,6.17,45.57,45.57,0,0,0,.06,5,29.59,29.59,0,0,1,.25,5.57q-.34,5.7-1.17,11.34a95.65,95.65,0,0,0-1.13,10.94c-.1,3.75.18,7.51,0,11.26-.09,1.74-.44,3.39-.7,5.11a27.33,27.33,0,0,0-.07,5.86c.11,1.77.09,3.53.09,5.29a42,42,0,0,0,0,5.5,17,17,0,0,1,.32,2.57,12.18,12.18,0,0,0,.06,2.7c.33,1.67.47,3.38.68,5.08s.31,3.35.57,5a29.22,29.22,0,0,1,.39,3c0,1-.08,2.06-.06,3.09,0,1.91.62,3.78.73,5.69.05.91,0,1.83,0,2.75s.36,2.07.51,3.12a89.52,89.52,0,0,1,.8,12.78c0,2.1-.22,4.17-.32,6.26s.06,4.18,0,6.27c-.07,4-.84,7.92-.1,11.87a1.45,1.45,0,0,0-.4,1c0,1.8,1.74,3,3.08,3.92a18,18,0,0,0,6.35,2.53c.52.12,1,.22,1.56.32a29.23,29.23,0,0,0,4.12,1.7c3,1,6.39,1,9.56,1.15s6.51.54,9.75.84l1.35.12a1.35,1.35,0,0,1,1.21-.82c5.28-.3,10.55-.42,15.82-.43,6.81-.37,13.63-.7,20.44-.75l1.1-.18c1.12-.18,2.25-.33,3.37-.49,2.77-.16,5.55-.3,8.32-.47q1.41-.09,2.82-.21a25.4,25.4,0,0,1,3.17.35,31.34,31.34,0,0,0,5.71.67c2.13,0,4.23.33,6.35.34a72.18,72.18,0,0,1,12.82.81,15.33,15.33,0,0,0,2.44.18c1,0,2,.25,3.07.35,2.16.2,4.39,0,6.56,0,4.14,0,8.32-.23,12.46-.06,1.87.08,3.71.44,5.59.51a39.56,39.56,0,0,0,6.24-.57,116.08,116.08,0,0,1,14.32-.57c2.44,0,4.89,0,7.33,0s4.79-.38,7.2-.34a1.48,1.48,0,0,0,.61-.12c7,.29,13.94.12,20.91.12,8,0,16.06.23,24.06-.25,1.75-.11,3.51-.12,5.26-.16s3.63.45,5.45.42a19.55,19.55,0,0,0,2.15-.21,95,95,0,0,0,17.53-.3c2.16-.22,4.33-.37,6.5-.5h.16c2.06.07,4.05-.33,6.1-.38a51.7,51.7,0,0,0,6.2-.64,22.73,22.73,0,0,0,5.59-1.24,16.24,16.24,0,0,0,2.23-1.16,1.78,1.78,0,0,0,.75.57c2.69,1.07,3.43-3.22,3.61-5,0-.18,0-.37,0-.56a10.28,10.28,0,0,0,.42-1c.05-.14.08-.29.13-.44a1.49,1.49,0,0,0,.67-.81,8,8,0,0,0-.09-5.63,1.8,1.8,0,0,0-.88-.92c0-.62,0-1.23,0-1.84.08-2,.27-4,.46-6,.09-.95.12-1.9.19-2.85s.33-2,.35-3.1c.1-4.39,0-8.8,0-13.2q0-5.51,0-11a62.25,62.25,0,0,0,.37-7.48,25.89,25.89,0,0,0-.25-3.51,6.87,6.87,0,0,1-.15-2.78,1.61,1.61,0,0,0,0-.62c.62-3.64,1.24-7.28,1.73-10.94s1.2-7.61,1.36-11.42C461.34,362.32,461.28,361.11,461.21,359.9Z"/><path class="cls-8" d="M413.36,392.06c-.17-4.35-.46-8.7-.36-13.05,0-2.11.14-4.22.27-6.31.1-1.59.49-3.25,0-4.8a1.49,1.49,0,0,0-2.63-.45,1.34,1.34,0,0,0-1.62,1.43c0,.12,0,.23,0,.35a1.3,1.3,0,0,0-.63-.15c-1.63.07-3,.93-4.47,1.56a1.49,1.49,0,0,0-2.14-.88c-.61.29-1.2.63-1.79.95l-.3.05h-.08l-.59-.23a1.22,1.22,0,0,0-1.45.37h0c-3,.25-6.06.63-9.11.81-6.17.38-12.37.27-18.54.19-.63,0-1.25,0-1.88,0l-1.33,0c-12.4-.47-24.8-.86-37.2-1-6.16-.06-12.32,0-18.48.19s-12.26.49-18.4.48c-12.43,0-24.86.36-37.29.81-3.24.11-6.49.2-9.73.28s-6.66-.1-10-.21c-6.08-.21-12.83.12-18.41-2.67.05-1.14.1-2.29.07-3.44,0-1.39,0-3.36-1.57-3.92a1.4,1.4,0,0,0-.41-.05,1.62,1.62,0,0,0-2.52,1.16c-.35,4-.39,7.94-.37,11.92,0,1.24,0,2.48,0,3.72,0,.24,0,.48,0,.73,0,2.07-.32,4.1-.35,6.16,0,4.15-.4,8.3-.32,12.45,0,.22,0,.44,0,.65s0,.37,0,.55c0,.83.09,1.66,0,2.48s-.32,1.49-.4,2.25a28.5,28.5,0,0,0,0,4,5.62,5.62,0,0,0-.32,1.3,5.28,5.28,0,0,0,.21,1.36c-.08.8-.15,1.61-.17,2.42,0,1.13,0,2.26,0,3.38a1.35,1.35,0,0,0,.91,1.34,2.5,2.5,0,0,0,2.55,1.89,2.62,2.62,0,0,0,2.25-1.31c.7-1.2,0-2.23,0-3.45,0-3.17.22-6.36,0-9.52a38.76,38.76,0,0,1-.22-4.31c.05-1.6.24-3.19.29-4.79.1-3.13-.05-6.27-.07-9.4,0-3.85.09-7.71.24-11.57a14.23,14.23,0,0,0,2.64.46,73.78,73.78,0,0,0,8.67-.06c5.43-.14,10.87-.28,16.31-.46a.3.3,0,0,0,0,.1,24.74,24.74,0,0,1,1.32,2.49,18.47,18.47,0,0,1,.6,2.94c.41,2.06.86,4.1,1.25,6.16.76,4,1.65,8.06,2.36,12.1.27,1.51.54,3,.8,4.54a1.4,1.4,0,0,0,.22,1.26c.36,2.06.69,4.11,1,6.18s.56,4.13.79,6.2a22.68,22.68,0,0,0,.45,3.16c.22.91.13,1.79.32,2.71a1.52,1.52,0,0,0,2.2.9l.28-.14a1.35,1.35,0,0,0,.38-2.17,6,6,0,0,0,0-.95c-.06-.4-.19-.76-.28-1.15a28.48,28.48,0,0,1-.45-3.32c-.22-2-.52-4-.79-6-.21-1.54-.46-3.07-.71-4.6,3,.27,6.12.07,9.12.06,3.89,0,7.76.09,11.64.3,8,.42,16.09.67,24.14.91s16.09.22,24.14.17c3.9,0,7.8,0,11.7.09,4.05.05,8.05-.21,12.09-.35,4.3-.16,8.61,0,12.91-.22,1.9-.11,3.8-.26,5.7-.18-.34.94-.69,1.89-1,2.85-.53,1.81-.95,3.65-1.49,5.46-.62,2.1-1.26,4.19-1.81,6.31-.27,1.05-.53,2.1-.86,3.13a14.86,14.86,0,0,0-.46,1.43,4.13,4.13,0,0,0-.07.49c0,.1,0,.19,0,.28-1.14,1.41.9,3.41,2.2,2a4.59,4.59,0,0,0,.9-2.41c.31-1.16.72-2.31,1-3.47.65-2.43,1.36-4.81,2.06-7.22s1.17-4.67,2-6.94c.22-.63.4-1.26.6-1.88l.41-.07c.3-1.1.57-2.22.77-3.35l-.2,0c.15-.55.31-1.09.44-1.66.74-3.16,1.91-6.2,2.86-9.29a1.28,1.28,0,0,1,0-.55c.36-1.4.91-2.72,1.36-4.08a1.53,1.53,0,0,1,.3-.53s0-.1,0-.15a1.09,1.09,0,0,1,.16-.38,1.23,1.23,0,0,0-.34-.26,38.6,38.6,0,0,1,1.9-5.18c.76-1.72,1.14-3.92,2.4-5.33a1.53,1.53,0,0,0,.4-.93c1.57.06,3.15.12,4.73.2a66.49,66.49,0,0,0,10.56-.09,24.81,24.81,0,0,0,3.53-.61,4.93,4.93,0,0,0,2.66.23,8.07,8.07,0,0,0,2.13.31,14.93,14.93,0,0,0,4.65-1.08,11.09,11.09,0,0,0,1.59-.73c.27,7.68.22,15.37.19,23.06,0,4.38-.2,8.83,0,13.2.11,2.12.15,4.31.43,6.41,0,.36.11.73.16,1.09a1.47,1.47,0,0,0-1.25,1c-.36,1.06-.75,2.31.24,3.16a2.41,2.41,0,0,0,3.64-1,5.85,5.85,0,0,0,.31-3.38l0-.06h0v0a7.39,7.39,0,0,0,.46-2.8,23.94,23.94,0,0,0-.05-3.59c0-1.77,0-3.55,0-5.32C413.47,400.77,413.54,396.43,413.36,392.06Zm-43.77,1.37a108.61,108.61,0,0,0-2.95,10.48c-.37,0-.74-.08-1.08-.09-1.84-.07-3.7.1-5.54.2-3.82.21-7.65.08-11.48.17s-7.7.42-11.57.41-7.78-.12-11.68-.11c-15.62.05-31.22-.09-46.82-.89-4.4-.23-8.79-.49-13.19-.48h-6.1a42.56,42.56,0,0,1-5.42-.14l-.84-4.75c-.36-2-.87-4-1.27-5.94-.15-.77-.28-1.54-.42-2.31a29.5,29.5,0,0,0,3.15.13c2.06,0,4.09.11,6.15.26s4,.1,6.05.16,4.15.23,6.22.33c8.2.39,16.47,0,24.67,0,4,0,8,.07,12,.24,4.15.18,8.31.1,12.46.11,2.07,0,4.12-.14,6.19-.25s3.91-.05,5.86-.18c4.06-.27,8.11-.2,12.18-.33,4.57-.15,9.13-.28,13.71-.26,3.65,0,7.29-.38,10.93-.58C370.44,390.87,370.07,392.16,369.59,393.43ZM374.64,378c-.57,1.64-1.32,3.2-1.92,4.83-.45,1.22-.81,2.46-1.14,3.7-3.26.14-6.51.44-9.76.59-4.09.17-8.18,0-12.27.13s-8.1.08-12.13.25-7.95.36-11.92.57c-8.15.43-16.28-.28-24.41-.26s-16.29.24-24.42.15c-4.49,0-9-.45-13.45-.48-2.35,0-4.68-.34-7-.37-1.87,0-3.67,0-5.51-.19-.08-.41-.14-.83-.22-1.25-.39-2-.85-3.95-1.21-5.93a12,12,0,0,0-.77-3,11.46,11.46,0,0,0-.6-1.15l3.55,0c12.86,0,25.72-.51,38.58-.45s25.87-.2,38.81-.5c6.54-.16,13.06-.2,19.59-.19s13,.31,19.49.39l3.49,0,4.58.14A13.76,13.76,0,0,0,374.64,378Z"/><path class="cls-6" d="M445.21,225H431.72c-4.4,0-8.73-.26-13.11-.54s-8.9-.13-13.33-.14H391.79c-4.65,0-9.28-.22-13.92-.4s-9.08-.47-13.59-.23c-2.17.12-4.33.35-6.5.49s-4.45.07-6.68.09c-1.9,0-3.67.6-5.54.72-2.26.15-4.58,0-6.84,0-18.26-.16-36.51-.08-54.77,0-9.19,0-18.39,0-27.58.08a119.11,119.11,0,0,1-13.36-.26,55.08,55.08,0,0,0-6.41-.45c-2.18,0-4.37.12-6.55.08-4.44-.09-8.87-.27-13.31-.22s-9,.15-13.43.15c-2.25,0-4.49,0-6.73.21s-4.2.61-6.31.92-4.41,0-6.61.4c-.93.19-1.83.42-2.77.52a11.08,11.08,0,0,0-2.85.56c-1.78.67-2.37,2.2-3.76,3.31s.63,3.31,2.12,2.12a10,10,0,0,0,1.56-1.75,3.49,3.49,0,0,1,2.45-1.19,50.22,50.22,0,0,1,6.2-.86,39.91,39.91,0,0,0,6.27-.55,49.44,49.44,0,0,1,6.54-.65c4.45-.17,8.92-.08,13.37-.14s8.76-.12,13.14,0c2.13.07,4.25.18,6.39.16s4.4-.17,6.59,0,4.27.49,6.42.59,4.38.12,6.57.12l27-.1c18.08-.06,36.16-.17,54.23-.06l7,.06a45.94,45.94,0,0,0,6.32-.05,36.67,36.67,0,0,1,5.72-.63c2.25,0,4.48,0,6.73-.17a122.93,122.93,0,0,1,13.16-.4c4.54.13,9.08.36,13.63.5,8.92.26,17.87.14,26.79.12,4.29,0,8.51.39,12.78.6,4.46.22,8.94.08,13.4.07h6.62A1.5,1.5,0,0,0,445.21,225Z"/><path class="cls-6" d="M210.57,441.51c.14-3.34.87-6.63.86-10,0-1.63-.1-3.25-.11-4.87,0-1.79.28-3.54.35-5.32.07-1.59-.3-3.15-.36-4.73a31.74,31.74,0,0,0-.09-4.47c-.52-2.95-3.22-4.82-5.73-6.42-1.47-.94-2.78-2.06-4.2-3.07a45.87,45.87,0,0,0-4.87-2.93c-3.49-1.91-7-3.72-10.44-5.74-1.67-1-3.37-2-5-3s-3.3-1.6-4.88-2.51a22.57,22.57,0,0,0-4.77-2.16c-.44-.12-.88-.2-1.33-.3l-.13,0c.14-1.29-2.08-2.2-3.09-.85a1.82,1.82,0,0,0-.23,2.22,1.92,1.92,0,0,0,0,.24c.38,3.5.8,7,1.09,10.5.14,1.71.26,3.43.33,5.14s-.05,3.55.14,5.3c.15,1.53.54,3,.65,4.56.11,1.7-.09,3.4,0,5.1.2,3.23.82,6.34.71,9.59s-.33,6.72-.33,10.09a83.31,83.31,0,0,0,0,9.35,6.07,6.07,0,0,0,1.51,3.63,7,7,0,0,0,3.71,1.5c3.5.78,6.92,1.72,10.47,2.28a66,66,0,0,0,10.61.78c3.56,0,7.43.4,10.93-.29,2.49-.48,5.12-1.42,4.1-4.22a9.6,9.6,0,0,1-.17-4.17C210.46,445,210.49,443.27,210.57,441.51Z"/><path class="cls-6" d="M414.6,441.51c-.15-3.34-.9-6.63-.89-10,0-1.63.1-3.25.11-4.87,0-1.79-.29-3.54-.37-5.32-.07-1.59.32-3.15.38-4.73a30.31,30.31,0,0,1,.09-4.47c.54-2.95,3.33-4.82,5.92-6.42,1.52-.94,2.88-2.07,4.34-3.07a49.24,49.24,0,0,1,5-2.93c3.61-1.91,7.26-3.72,10.79-5.74,1.73-1,3.48-2,5.2-3s3.41-1.6,5.05-2.51a23.86,23.86,0,0,1,4.93-2.16c.45-.12.91-.2,1.37-.3l.13,0c-.14-1.29,2.15-2.21,3.2-.85a1.76,1.76,0,0,1,.23,2.22,1,1,0,0,1,0,.24c-.39,3.5-.82,7-1.12,10.5-.15,1.71-.27,3.43-.34,5.14s.05,3.55-.14,5.3c-.16,1.53-.56,3-.67,4.56-.12,1.7.09,3.4,0,5.1-.2,3.23-.85,6.34-.73,9.59s.34,6.72.34,10.09a81,81,0,0,1,0,9.35,5.91,5.91,0,0,1-1.57,3.63,7.36,7.36,0,0,1-3.83,1.5c-3.61.78-7.14,1.72-10.81,2.28a70.54,70.54,0,0,1-11,.78c-3.69,0-7.68.4-11.3-.29-2.57-.48-5.29-1.42-4.24-4.22a9.17,9.17,0,0,0,.18-4.17C414.7,445,414.67,443.27,414.6,441.51Z"/><path class="cls-9" d="M448.69,340c2.59-3.73,3.47-8,3.28-13.86-.63-19.7-1.86-40.15-6.16-59.42-.68-3.07-1.07-6.14-1.47-9.25a38.51,38.51,0,0,0-1.88-9c-.5-1.31-.88-2.73-1.48-4a9,9,0,0,0-2.4-2.64c-2-1.8-3.69-3.92-5.7-5.68a9.45,9.45,0,0,0-3.13-1.92,28.76,28.76,0,0,0-3.93-.78c-4.29-.81-8.44-.08-12.68.61-1.58.26-3.22,0-4.82.26a50.2,50.2,0,0,1-6.72.08q-3.47,0-6.93,0c-4.07,0-8.19.18-12.25-.13s-7.9-.66-11.92-.59c-27.93.46-55.75-1.64-83.69-.34-10.8.51-21.58.34-32.39.34-4-.07-7.92.28-11.92.59a131.69,131.69,0,0,1-15.77.29c-3.87-.17-7.75.11-11.6-.37-5.22-.63-10.8-1.75-16-.77a28.76,28.76,0,0,0-3.93.78,9.45,9.45,0,0,0-3.13,1.92c-2,1.76-3.71,3.88-5.7,5.68a9,9,0,0,0-2.4,2.64c-.6,1.27-1,2.69-1.48,4a39,39,0,0,0-1.88,9c-1.61,12.45-3,24.9-4.82,37.34-1.33,8.92-2.78,17.86-3.17,26.89-.33,7.73-1.27,14.73,4.67,20a62.19,62.19,0,0,0,5.32,4.38,45.39,45.39,0,0,0,12.49,6.14,69.54,69.54,0,0,0,7.06,1.45,70.79,70.79,0,0,0,7.41.95c5.12.52,10.26,1.27,15.4,1.48s10.32.79,15.45,1.45c2.51.32,5,.1,7.49.21,1.16.05,2.3.26,3.45.34s2.54,0,3.8,0c5.11,0,10.24-.2,15.35-.13,2.65,0,5.27.41,7.91.49s5.25.08,7.86,0c2.92-.1,5.8-.34,8.72-.34a76.22,76.22,0,0,0,8.28-.05c2.86-.3,5.66-.17,8.54-.25.22,0,.45,0,.67-.05s.45.05.68.05c2.87.08,5.67-.05,8.53.25a76.22,76.22,0,0,0,8.28.05c2.92,0,5.81.24,8.73.34,2.61.1,5.24.11,7.85,0s5.27-.45,7.92-.49c5.1-.07,10.23.12,15.34.13,1.26,0,2.54.07,3.8,0s2.3-.29,3.46-.34c2.51-.11,5,.11,7.48-.21,5.14-.66,10.27-1.23,15.45-1.45s10.28-1,15.41-1.48a98.39,98.39,0,0,0,14.47-2.4,45.47,45.47,0,0,0,12.48-6.14A25,25,0,0,0,448.69,340Z"/><path class="cls-9" d="M469.23,478.49c-.12-3-.05-6,0-9,0-2.83-.35-5.65-.35-8.48a37,37,0,0,0-.55-8.28,18.3,18.3,0,0,0-3.19-6.8,9.5,9.5,0,0,0-4.88-2.94c0-.51.07-1,.1-1.53.16-2.18-.33-4.4-.32-6.59,0-4.1,0-8.2,0-12.3s.32-8.22.32-12.35-.17-8.29,0-12.41c0-1,.23-2,.33-2.93a21.68,21.68,0,0,0,0-2.55c0-1.07.23-2.12.3-3.18,0-.62,0-1.24,0-1.85a1.45,1.45,0,0,0,.26-.85v-.13a1.2,1.2,0,0,0,.37-1.46,2.64,2.64,0,0,0-.36-.66V384c.06-.84.34-1.63.45-2.46s.06-1.62.2-2.44a12.18,12.18,0,0,0,.12-2.63,28,28,0,0,1,.42-4.55c.11-.79,0-1.56.09-2.36s.21-1.59.24-2.41c.12-3,.55-5.94.5-8.93a19.3,19.3,0,0,1,.07-2.63,7.9,7.9,0,0,0,.16-2.06,20.12,20.12,0,0,1-.25-2.05c0-.72.05-1.42,0-2.14-.13-1.63-.43-3.25-.6-4.88-.14-1.37-.08-2.7-.14-4.07-.14-3.14-.24-6.31-.58-9.45-.36-3.32.14-6.67-.25-10-.34-3-.32-6-.66-9-.17-1.56,0-3.18-.06-4.75s-.24-3-.22-4.53a20.72,20.72,0,0,0-.65-4.9,20.93,20.93,0,0,1-.38-4.4,1.37,1.37,0,0,0-.38-1c-.11-1.11,0-2.22-.16-3.33s-.2-2.25-.24-3.42a73.39,73.39,0,0,0-.46-7.56c-.65-4.6-1-9.21-1.51-13.82-.3-2.49-.49-5-.76-7.49s-.07-4.84-.65-7.15a30.4,30.4,0,0,1-.81-3.52c-.15-1.14-.39-2.27-.59-3.4-.4-2.29-.26-4.59-.62-6.88a30,30,0,0,0-1.41-6.71c-.14-.36-.3-.71-.47-1.05a1.51,1.51,0,0,0-.05-1.26c-.55-1.11-1.42-2-2-3.09a24.6,24.6,0,0,0-2.45-3.24c-1.68-2.16-3.38-4.23-5.25-6.24-1-1.11-1.9-2.39-2.93-3.52s-2.11-2.34-3.14-3.53c-1.78-2-3.42-4.15-5.8-5.44a1.28,1.28,0,0,0-1-.88,31.58,31.58,0,0,0-7.15-1.1c-2.37,0-4.72.07-7.09-.13-4.91-.41-9.78.18-14.69.16H393.6c-2.13,0-4.24-.23-6.37-.24-4.37,0-8.73-.25-13.1-.27s-8.69.36-13,.17-8.81-.16-13.22-.16-9,.26-13.46.25H320.74c-2.2,0-4.4,0-6.6.15l-1.08.07-1.07-.07c-2.21-.11-4.4-.15-6.61-.15H291.72c-4.49,0-9-.26-13.46-.25s-8.82,0-13.23.16-8.68-.19-13-.17-8.73.23-13.09.27c-2.13,0-4.24.25-6.37.24H226c-4.91,0-9.77-.57-14.69-.16-2.36.2-4.72.16-7.09.13a31.49,31.49,0,0,0-7.14,1.1,1.25,1.25,0,0,0-1,.88c-2.39,1.29-4,3.41-5.8,5.44-1,1.19-2.09,2.36-3.15,3.53s-1.89,2.41-2.92,3.52c-1.87,2-3.57,4.08-5.25,6.24a23.76,23.76,0,0,0-2.45,3.24c-.58,1.1-1.46,2-2,3.09a1.47,1.47,0,0,0-.05,1.26c-.18.34-.33.69-.48,1.05a30.57,30.57,0,0,0-1.4,6.71c-.37,2.29-.23,4.59-.63,6.88-.2,1.13-.44,2.26-.58,3.4a30.4,30.4,0,0,1-.81,3.52c-.58,2.31-.41,4.79-.66,7.15s-.46,5-.75,7.49c-.55,4.61-.87,9.22-1.51,13.82a70.68,70.68,0,0,0-.46,7.56c0,1.17-.11,2.26-.25,3.42s0,2.22-.16,3.33a1.46,1.46,0,0,0-.38,1,20.29,20.29,0,0,1-.38,4.4,21.25,21.25,0,0,0-.65,4.9c0,1.52-.15,3-.21,4.53s.11,3.19-.07,4.75c-.34,3-.31,6-.66,9-.38,3.31.12,6.66-.24,10-.34,3.14-.45,6.31-.59,9.45-.06,1.37,0,2.7-.14,4.07-.16,1.63-.47,3.25-.59,4.88-.06.72,0,1.42,0,2.14a20.1,20.1,0,0,1-.24,2.05,8.35,8.35,0,0,0,.15,2.06,17.81,17.81,0,0,1,.07,2.63c0,3,.39,6,.51,8.93,0,.82.2,1.61.24,2.41s0,1.57.08,2.36a27,27,0,0,1,.43,4.55,12.85,12.85,0,0,0,.11,2.63c.14.82.09,1.62.2,2.44s.39,1.62.45,2.46c0,.07,0,.14,0,.2a2.67,2.67,0,0,0-.37.66,1.21,1.21,0,0,0,.38,1.46s0,.09,0,.13a1.45,1.45,0,0,0,.26.85c0,.61,0,1.23,0,1.85.06,1.06.31,2.11.29,3.18a21.68,21.68,0,0,0,0,2.55c.1,1,.29,1.94.34,2.93.2,4.12,0,8.29,0,12.41s.33,8.22.33,12.35,0,8.2,0,12.3c0,2.19-.48,4.41-.33,6.59,0,.52.07,1,.1,1.53a9.54,9.54,0,0,0-4.88,2.94,18.46,18.46,0,0,0-3.19,6.8,37.62,37.62,0,0,0-.54,8.28c0,2.83-.36,5.65-.35,8.48,0,3,.07,6,0,9-.1,2.7.25,5.29.33,8a18.58,18.58,0,0,0,.59,3.49,13.49,13.49,0,0,0,1,3.69,18.08,18.08,0,0,0,2.07,2.78,27.05,27.05,0,0,0,2.74,3,20.32,20.32,0,0,0,3.33,2.81c1.15.65,2.26,1.3,3.35,2,3.55,2.43,7.94,3.06,12.13,4,2,.44,4.05.77,6.1,1,.19.81.49,1.6.74,2.37a9.75,9.75,0,0,0,.8,1.88,15.91,15.91,0,0,1,1,2.4,21.58,21.58,0,0,0,2.16,3.52c.87,1.41,1.57,3,2.54,4.29,1.63,2.24,3.52,4.74,6.34,5.49,3.37.9,7,.51,10.43.55,3.65.05,7.28.38,10.92.57s7.09,0,10.66,0c3.39-.05,6.71-.33,10.09-.55,1.64-.11,3.2,0,4.84-.29s3.29-.1,4.89-.43c3.31-.7,2.93-5.23,2.93-7.73V510.55q4,0,8,0c11.72-.14,23.48.87,35.21,1q15.58.22,31.18-.15c10-.24,20-1,30-.89q4,0,8,0v10.78c0,2.5-.38,7,2.94,7.73,1.6.33,3.27.18,4.89.43s3.2.18,4.83.29c3.38.22,6.7.5,10.1.55,3.56.06,7.09.21,10.66,0s7.27-.52,10.91-.57c3.45,0,7.06.35,10.43-.55,2.82-.75,4.72-3.25,6.35-5.49,1-1.33,1.67-2.88,2.54-4.29a23.07,23.07,0,0,0,2.16-3.52,15.87,15.87,0,0,1,1-2.4,9.79,9.79,0,0,0,.81-1.88c.25-.77.55-1.56.74-2.37,2-.26,4.07-.59,6.09-1,1.4-.3,2.81-.61,4.2-1,.18,0,.36-.1.55-.16l.17,0c2.76,0,5-1.35,7.21-2.86,1.1-.74,2.21-1.39,3.36-2a20.74,20.74,0,0,0,3.33-2.81,26,26,0,0,0,2.73-3,17.45,17.45,0,0,0,2.07-2.78,13.15,13.15,0,0,0,1-3.69,17.81,17.81,0,0,0,.59-3.49C469,483.78,469.33,481.19,469.23,478.49ZM181.16,222.43a71.93,71.93,0,0,1,5.16-6.14c.93-1,1.67-2.15,2.6-3.16s2-2.25,3-3.38c1.86-2.07,3.49-4.46,6-5.7a1.33,1.33,0,0,0,.58-.51,24.21,24.21,0,0,1,5.66-.84c2.05,0,4.11.1,6.15,0s4.22-.26,6.34-.25,4.36.32,6.55.34,4.41,0,6.62,0,4.17.11,6.23-.08c4.3-.37,8.7-.37,13-.41,2.22,0,4.44-.06,6.66,0s4.22.29,6.35.26c4.41-.06,8.82-.24,13.24-.25s8.92.19,13.39.25c4.3.05,8.6,0,12.9,0h.46c1.44,0,2.87,0,4.31.05a24.54,24.54,0,0,0,2.72.24l3.9-.08,3.9.08a24.72,24.72,0,0,0,2.73-.24c1.43,0,2.87-.05,4.3-.05h.46c4.3,0,8.6.05,12.9,0,4.47-.06,8.93-.26,13.4-.25s8.82.19,13.24.25c2.12,0,4.22-.22,6.34-.26s4.45,0,6.67,0c4.31,0,8.72,0,13,.41,2.07.19,4.17.08,6.24.08s4.41,0,6.62,0,4.35-.32,6.54-.34,4.23.09,6.34.25,4.11.08,6.15,0a24.13,24.13,0,0,1,5.66.84,1.37,1.37,0,0,0,.59.51c2.55,1.24,4.17,3.63,6,5.7,1,1.13,2,2.26,3,3.38s1.67,2.16,2.61,3.16a73.71,73.71,0,0,1,5.15,6.14l.54.68a12.22,12.22,0,0,0-2.58-.17c-2.75,0-5.54.12-8.28-.09-5.48-.43-11,.09-16.47-.17-2.4-.11-4.77-.25-7.18-.25s-5,0-7.47-.08c-4.92-.23-9.85-.16-14.78-.18-2.46,0-4.92-.09-7.38,0s-4.84.35-7.27.38c-4.9.07-9.79-.28-14.69-.32-15.23-.15-30.85-1-46.24-1.09s-30.92.93-46.44,1.09c-4.89,0-9.79.39-14.68.32-2.43,0-4.85-.31-7.28-.38s-4.92,0-7.38,0c-4.93,0-9.85,0-14.78.18-2.49.11-5,.08-7.47.08s-4.77.14-7.17.25c-5.49.26-11-.26-16.47.17-2.74.21-5.54.11-8.29.09a12.17,12.17,0,0,0-2.57.17Zm-15.3,138c-.11-1.45,0-2.91-.06-4.37a17,17,0,0,1-.25-2.12c0-.83.29-1.61.29-2.45,0-3,.66-5.95.76-8.95s.05-6.24.32-9.32c.13-1.52.38-3,.42-4.54,0-1.78,0-3.56,0-5.34,0-1.49.28-2.94.3-4.42s.13-3.16.21-4.76.27-3.39.28-5.13.21-3.36.26-5c0-.9-.06-1.79,0-2.69a17.17,17.17,0,0,1,.55-2.75,23.34,23.34,0,0,0,.47-4.25,1.44,1.44,0,0,0,.22-.55,19.57,19.57,0,0,0,.26-3.24c0-1.07.28-2.09.31-3.15.05-2.16.22-4.31.25-6.47,0-2.33.5-4.65.72-7,.21-2.12.4-4.22.64-6.34.55-5,1.29-10,1.42-15a11.08,11.08,0,0,1,.48-3,24.22,24.22,0,0,0,.7-3.57,40.64,40.64,0,0,0,.89-6.86,29.71,29.71,0,0,1,1.09-7.71,6.21,6.21,0,0,1,1.44-3c.54-.51,1-.94,1.51-1.42a4.94,4.94,0,0,1,2.08-1,20.18,20.18,0,0,1,3.3,0c2.51,0,5,.05,7.51-.15,4.73-.38,9.56-.08,14.3-.08,2.4,0,4.78-.29,7.18-.28s4.86,0,7.28,0c4.85-.13,9.67-.23,14.52-.23,2.38,0,4.77-.06,7.15-.06s4.71.21,7.08.33c4.85.24,9.7-.13,14.55-.22,11-.2,21.93.37,32.9-.44a224.51,224.51,0,0,1,33,.15c10.56.76,21.15.1,31.72.29,4.85.09,9.7.46,14.55.22,2.36-.12,4.7-.33,7.08-.33s4.76,0,7.15.06c4.84,0,9.67.1,14.51.23,2.43.06,4.86,0,7.29,0s4.78.28,7.18.28c4.74,0,9.57-.3,14.3.08,2.5.2,5,.15,7.5.15a20.31,20.31,0,0,1,3.31,0,4.9,4.9,0,0,1,2.07,1c.47.48,1,.91,1.51,1.42a6.31,6.31,0,0,1,1.45,3,29.7,29.7,0,0,1,1.08,7.71,40.66,40.66,0,0,0,.9,6.86,24.19,24.19,0,0,0,.69,3.57,11.08,11.08,0,0,1,.48,3c.14,5,.87,10,1.43,15,.24,2.12.43,4.22.63,6.34.23,2.31.7,4.63.73,7,0,2.16.2,4.31.25,6.47,0,1.06.29,2.08.3,3.15a19.59,19.59,0,0,0,.27,3.24,1.44,1.44,0,0,0,.22.55,22.48,22.48,0,0,0,.47,4.25,17.14,17.14,0,0,1,.54,2.75c.05.9,0,1.79,0,2.69.05,1.68.26,3.35.27,5s.18,3.41.27,5.13.2,3.16.22,4.76.28,2.93.29,4.42c0,1.78-.07,3.56,0,5.34,0,1.52.29,3,.42,4.54.27,3.08.22,6.23.33,9.32s.75,5.94.75,8.95c0,.84.26,1.62.29,2.45a19.1,19.1,0,0,1-.24,2.12c-.11,1.46,0,2.92-.07,4.37-.21,3-.48,6-.69,9-.1,1.36-.09,2.69-.27,4a17.32,17.32,0,0,0-.28,2.15c0,.76.11,1.52.06,2.28a40.35,40.35,0,0,1-.58,4.53c0,.15,0,.3-.06.45a7.23,7.23,0,0,0-2.19,0,20.46,20.46,0,0,0-6.74,2.88c-1.07.62-2.28.87-3.36,1.46s-2.18,1.55-3.36,2.2c-2.54,1.4-5.15,2.59-7.62,4.13-2.13,1.33-4.34,2.52-6.4,4s-4,2.89-5.95,4.42a55.18,55.18,0,0,0-5.68,5.24,12.42,12.42,0,0,0-3.35,5.92,28.47,28.47,0,0,0-.35,6.33c-.89,0-1.79.06-2.66.06-1.56,0-3.13-.05-4.68.07a10,10,0,0,0-7.14,3.17c-1.6,1.84-2.69,4-4.28,5.9a20.42,20.42,0,0,0-2.62,3c-.59,1-1.15,2-1.84,3a36,36,0,0,0-2.16,3.3c-.58,1.08-1,2.24-1.47,3.36-.75,1.71-1.17,3.71.76,4.79a9.92,9.92,0,0,0,4.55.76c2.61.07,5.26-.05,7.86.19,2.81.26,5.59.24,8.42.24h4.32c.72,0,1.44.07,2.15,0,.08.7.15,1.39.17,2.09a25.14,25.14,0,0,0,.19,3.36,11.51,11.51,0,0,0,.62,2.39c-6.27,0-12.53-.1-18.81-.28-6.74-.2-13.52-.75-20.28-.32-7.07.45-14.15.06-21.23.48-1.76.1-3.54,0-5.29.16s-3.25.36-4.93.36c-3.43,0-6.86-.1-10.29.06a612.51,612.51,0,0,1-64-.58c-7.07-.42-14.15,0-21.23-.48-6.75-.43-13.53.12-20.28.32-6.27.18-12.53.25-18.8.28a12.17,12.17,0,0,0,.62-2.39,23.57,23.57,0,0,0,.18-3.36c0-.7.1-1.39.18-2.09.71,0,1.43,0,2.15,0H218c2.82,0,5.6,0,8.42-.24,2.6-.24,5.25-.12,7.86-.19a9.92,9.92,0,0,0,4.55-.76c1.92-1.08,1.51-3.08.75-4.79-.49-1.12-.89-2.28-1.47-3.36a34,34,0,0,0-2.16-3.3c-.69-1-1.24-2-1.83-3a20.49,20.49,0,0,0-2.63-3c-1.59-1.86-2.68-4.06-4.28-5.9a10,10,0,0,0-7.14-3.17c-1.55-.12-3.12-.07-4.67-.07-.88,0-1.78-.06-2.67-.06a28.47,28.47,0,0,0-.34-6.33,12.43,12.43,0,0,0-3.36-5.92,55.18,55.18,0,0,0-5.68-5.24c-1.92-1.53-3.94-3-6-4.42s-4.27-2.64-6.4-4c-2.46-1.54-5.08-2.73-7.62-4.13-1.17-.65-2.18-1.55-3.36-2.2s-2.28-.84-3.35-1.46a20.46,20.46,0,0,0-6.74-2.88,7.24,7.24,0,0,0-2.19,0l-.06-.45a38.16,38.16,0,0,1-.58-4.53c-.05-.76.06-1.52,0-2.28a17.3,17.3,0,0,0-.27-2.15c-.18-1.35-.18-2.68-.27-4C166.35,366.37,166.08,363.39,165.86,360.4Zm291.45,54.72c-.06,1-.27,2-.31,3.05-.09,2,0,4.07,0,6.09,0,4.12-.11,8.26,0,12.38a38.85,38.85,0,0,1,.24,5.71c-.05.44-.07.88-.1,1.31a1.6,1.6,0,0,0-.07.94q0,1-.06,2.1c-.47.87-.37,1.9-.92,2.69-.68,1-2.12,1.46-3.14,1.93a31.45,31.45,0,0,1-7.06,2.07,73.1,73.1,0,0,1-7.81,1c-2.78.25-5.55.44-8.34.44-2.4,0-4.77.12-7.16.27-.45,0-.95.09-1.46.12a1.5,1.5,0,0,0-.37,0h-.91c-.16,0-.32,0-.47-.08-.8-.24-.87-.82-1.07-1.53-.61-2.16-.45-4.4-.69-6.63s-.27-4.83-.4-7.23.09-4.81-.25-7.19a67.56,67.56,0,0,1-.47-7.13c-.1-2.44,0-4.9,0-7.35,0-2.17-.06-4.38,1-6.35a19.18,19.18,0,0,1,4.07-4.65,52,52,0,0,1,5.48-4.46c1.84-1.3,3.54-2.73,5.46-3.91s3.68-2.26,5.53-3.37,4.09-2.14,6.13-3.22c1-.54,1.91-1.25,2.87-1.88a14.54,14.54,0,0,1,2.51-1.14c1.82-.75,3.31-2,5.2-2.6a7.74,7.74,0,0,1,2.82-.69c.18,0,.37.05.57.08a1.42,1.42,0,0,0-.06.42c0,2.31-.41,4.6-.31,6.9.1,2.15-.37,4.3-.37,6.46,0,4.1,0,8.21,0,12.31C457.33,413,457.38,414.06,457.31,415.12ZM208.93,439.7c-.14,2.4-.15,4.85-.41,7.23s-.07,4.47-.68,6.63c-.21.71-.28,1.29-1.08,1.53-.14,0-.31.05-.47.08h-.91a1.37,1.37,0,0,0-.36,0c-.51,0-1-.09-1.47-.12-2.39-.15-4.75-.26-7.15-.27-2.79,0-5.56-.19-8.34-.44a72.78,72.78,0,0,1-7.81-1,31.38,31.38,0,0,1-7.07-2.07c-1-.47-2.46-1-3.13-1.93-.55-.79-.46-1.82-.93-2.69,0-.7,0-1.4-.05-2.1a1.69,1.69,0,0,0-.07-.94c0-.43-.06-.87-.11-1.31a41.82,41.82,0,0,1,.24-5.71c.1-4.12,0-8.26,0-12.38,0-2,.08-4.07,0-6.09,0-1-.25-2-.31-3.05s0-2.13,0-3.19c0-4.1,0-8.21,0-12.31,0-2.16-.47-4.31-.38-6.46.1-2.3-.3-4.59-.3-6.9a1.85,1.85,0,0,0-.06-.42,5.58,5.58,0,0,1,.57-.08,7.79,7.79,0,0,1,2.82.69c1.89.62,3.37,1.85,5.2,2.6a14.89,14.89,0,0,1,2.51,1.14c1,.63,1.84,1.34,2.86,1.88,2.05,1.08,4.15,2,6.13,3.22s3.7,2.23,5.54,3.37,3.61,2.61,5.45,3.91a52.15,52.15,0,0,1,5.49,4.46,18.93,18.93,0,0,1,4.06,4.65c1,2,1,4.18,1,6.35,0,2.45.07,4.91,0,7.35s-.14,4.82-.47,7.13S209.06,437.3,208.93,439.7Zm44.29,86.45a6.07,6.07,0,0,1-1.75.1,16.94,16.94,0,0,0-2.26.19,34.78,34.78,0,0,1-4.55.31c-3,.09-6,.55-9.07.57-3.24,0-6.46.24-9.7.14s-6.46-.37-9.69-.54-6.54-.06-9.81-.14a11.51,11.51,0,0,1-4-.58,6,6,0,0,1-1.4-1,9.72,9.72,0,0,1-1.79-1.66c-.86-1.17-1.49-2.44-2.24-3.67s-1.7-2.65-2.55-4a11.93,11.93,0,0,1-.95-2.35,10.15,10.15,0,0,0-.82-1.48,12.25,12.25,0,0,1-.86-2.35s0-.09-.05-.13c.66,0,1.31,0,2,0,1.38.1,2.73.3,4.12.31,2.8,0,5.6,0,8.4,0,1.24,0,2.42.27,3.64.38a31.16,31.16,0,0,0,4.1,0c2.75-.1,5.51,0,8.26.05,5.68.12,11.35.26,17,.26h14.63v8.09c0,1.58,0,3.16,0,4.74C253.93,524.21,253.82,525.92,253.22,526.15Zm181.13-16.47a12.28,12.28,0,0,1-.87,2.35,10.09,10.09,0,0,0-.81,1.48,11.93,11.93,0,0,1-.95,2.35c-.86,1.33-1.74,2.63-2.56,4s-1.38,2.5-2.23,3.67a9.47,9.47,0,0,1-1.8,1.66,5.76,5.76,0,0,1-1.39,1,11.57,11.57,0,0,1-4,.58c-3.27.08-6.53,0-9.8.14s-6.46.44-9.7.54-6.46-.12-9.69-.14c-3,0-6-.48-9.07-.57a34.78,34.78,0,0,1-4.55-.31,17.22,17.22,0,0,0-2.26-.19,6.11,6.11,0,0,1-1.76-.1c-.59-.23-.7-1.94-.69-2.77q0-2.37,0-4.74v-8.09h14.64c5.67,0,11.35-.14,17-.26,2.75-.05,5.51-.15,8.26-.05a31.32,31.32,0,0,0,4.11,0c1.22-.11,2.4-.36,3.63-.38,2.8,0,5.61,0,8.41,0,1.38,0,2.74-.21,4.12-.31.65-.05,1.31,0,2,0Zm31.53-22.79c-.07,1.18-.51,2.29-.66,3.46a5.46,5.46,0,0,1-1.13,2.78,44.26,44.26,0,0,1-4.68,5.09c-2.05,2-6,4.88-8.9,5.3s-5.46,1.4-8.31,2a48.91,48.91,0,0,1-5.15.84,1.65,1.65,0,0,0-1.8.14c-.52,0-1,.05-1.54,0-1.42,0-2.82.21-4.24.29s-3,0-4.53,0h-4.82c-1.38,0-2.71.28-4.08.4-2.61.23-5.31-.07-7.94,0-2.88,0-5.76.11-8.64.18-5.59.13-11.18.15-16.78.15H371.36a1.74,1.74,0,0,0-1.23,0h-4.19a83.83,83.83,0,0,0-8.39.1,48.33,48.33,0,0,1-7.89.08,64.26,64.26,0,0,0-8.44-.11c-2.79.22-5.58.27-8.37.27-5.24,0-10.47,0-15.7,0-1.36-.06-2.73-.06-4.09,0s-2.72,0-4.08,0c-5.23,0-10.47,0-15.7,0-2.8,0-5.58-.05-8.37-.27a64.41,64.41,0,0,0-8.45.11,48.22,48.22,0,0,1-7.88-.08,83.83,83.83,0,0,0-8.39-.1H256a1.74,1.74,0,0,0-1.23,0H243.44c-5.59,0-11.18,0-16.78-.15-2.88-.07-5.75-.15-8.63-.18-2.63,0-5.33.28-7.95,0-1.37-.12-2.69-.39-4.08-.4h-4.81c-1.51,0-3,.05-4.54,0s-2.81-.32-4.24-.29c-.51,0-1,0-1.53,0a1.67,1.67,0,0,0-1.81-.14,40.08,40.08,0,0,1-10.61-2.3,5,5,0,0,0-1.83-.52c-2,0-2.84-.48-4.52-1.62s-3.83-2.17-5.39-3.7a43.46,43.46,0,0,1-4.69-5.09,5.64,5.64,0,0,1-1.13-2.78c-.15-1.17-.58-2.28-.65-3.46-.14-2.33-.47-4.67-.4-7,.07-2.56.1-5.11.1-7.67s0-5.12.2-7.69.09-5,.12-7.46a14.83,14.83,0,0,1,2.1-7.55c.61-1,1-2.05,2.07-2.64a13.68,13.68,0,0,1,1.64-.76c0,.21,0,.42,0,.64a1,1,0,0,0,0,.75c0,.22,0,.44,0,.66a1.36,1.36,0,0,0,.78,1.29,4,4,0,0,0,.43,1.28,6.91,6.91,0,0,0,2.64,2.36,23.4,23.4,0,0,0,6.77,2.63c2.64.52,5.2.94,7.87,1.24s5.45.59,8.19.8,5.36,0,8,.13a31.31,31.31,0,0,0,5.68.28c6.7,0,13.4.07,20.1-.2,3.39-.13,6.77-.25,10.17-.46s6.91,0,10.35,0,6.84.38,10.28.39c3.63,0,7.27-.07,10.91.05,29.93,1,59.52,1,89.45,0,3.63-.12,7.27-.05,10.91-.05,3.43,0,6.85-.38,10.28-.39s6.92-.2,10.35,0,6.77.33,10.17.46c6.7.27,13.4.21,20.1.2a31.4,31.4,0,0,0,5.68-.28c2.67-.16,5.37.08,8-.13s5.46-.49,8.19-.8,5.23-.72,7.86-1.24a23.4,23.4,0,0,0,6.77-2.63,6.94,6.94,0,0,0,2.65-2.36,4.5,4.5,0,0,0,.43-1.28,1.37,1.37,0,0,0,.78-1.29c0-.22,0-.44,0-.66a1.08,1.08,0,0,0,0-.75l0-.64a13.53,13.53,0,0,1,1.63.76c1.09.59,1.47,1.62,2.08,2.64a14.72,14.72,0,0,1,2.09,7.55c0,2.5,0,5,.12,7.46s.21,5.12.21,7.69,0,5.11.1,7.67C466.34,482.22,466,484.56,465.88,486.89Z"/><path class="cls-9" d="M163.36,363.85A1.52,1.52,0,0,0,162,362c-1.12,0-2.21-.31-3.33-.35s-1.76,0-2.43-.87c-1.14-1.49-.82-3.68-1.06-5.43-.14-1.07-.14-2.14-.27-3.21a30.15,30.15,0,0,1-.32-3.43c0-2.05.12-4.1.28-6.15a6.54,6.54,0,0,0,5.86-2.83,5.4,5.4,0,0,0,1.42-4.23c0-2,0-4,0-6.06s.13-4.23.07-6.34c0-1.93-.44-3.79-.42-5.71a110.06,110.06,0,0,0-.69-12.57c-.16-1.58-.37-3.33-1.86-4.21a8.2,8.2,0,0,0-5-.82c-2,.22-4,.49-6,.82a14.66,14.66,0,0,0-4.47,1.2c-3.49,1.88-2.55,6.54-2.63,9.81,0,2.09-.34,4.13-.23,6.23s.29,4,.28,6c0,4.14-.61,8.68.53,12.72a7.6,7.6,0,0,0,2.94,4.52A12.85,12.85,0,0,0,150,342.7a17.92,17.92,0,0,0,.08,3.27,19.06,19.06,0,0,1,.15,4.34,34.7,34.7,0,0,0,.88,8.74,8.54,8.54,0,0,0,3.27,5.39A9,9,0,0,0,158,365.7a36.16,36.16,0,0,0,4.26.63A1.47,1.47,0,0,0,163.36,363.85Z"/><path class="cls-9" d="M462.62,363.85A1.5,1.5,0,0,1,464,362c1.12,0,2.21-.31,3.32-.35s1.76,0,2.44-.87c1.14-1.49.82-3.68,1.06-5.43.14-1.07.14-2.14.27-3.21a32.62,32.62,0,0,0,.32-3.43c0-2.05-.12-4.1-.28-6.15a6.54,6.54,0,0,1-5.86-2.83,5.4,5.4,0,0,1-1.42-4.23c0-2,0-4,0-6.06s-.13-4.23-.07-6.34c.05-1.93.43-3.79.42-5.71a112.38,112.38,0,0,1,.68-12.57c.17-1.58.38-3.33,1.87-4.21a8.2,8.2,0,0,1,5-.82c2,.22,4,.49,6,.82a14.52,14.52,0,0,1,4.46,1.2c3.5,1.88,2.56,6.54,2.64,9.81,0,2.09.34,4.13.22,6.23s-.28,4-.27,6c0,4.14.61,8.68-.53,12.72a7.6,7.6,0,0,1-2.94,4.52A12.85,12.85,0,0,1,476,342.7a17.92,17.92,0,0,1-.08,3.27,19.06,19.06,0,0,0-.15,4.34,34.7,34.7,0,0,1-.88,8.74,8.54,8.54,0,0,1-3.27,5.39A9,9,0,0,1,468,365.7a36.16,36.16,0,0,1-4.26.63A1.47,1.47,0,0,1,462.62,363.85Z"/><path class="cls-9" d="M208.93,480.61l0-.51c-.09-2.38-.47-4.72-.48-7.11a1.5,1.5,0,0,0-3,0v.17a.45.45,0,0,0,0,.12c0,2.16.37,4.29.46,6.44a58.7,58.7,0,0,0-10.17-.38c-2.3.06-4.54-.07-6.83-.2s-4.42-.41-6.62-.35a5.3,5.3,0,0,0-1.15.16s0-.07,0-.1a13.8,13.8,0,0,0-.24-2.87,26.67,26.67,0,0,0-.59-3.21c-.59-1.83-3.49-1-2.89.79a17.43,17.43,0,0,1,.71,5.51c0,1.58-.33,3.36.5,4.81s2.62,1.86,4.11,2.26c2,.53,4,.66,6.05,1.07a109.54,109.54,0,0,0,12.37,1.6,32,32,0,0,0,5.26.23,2.87,2.87,0,0,0,2.7-2.84,18.06,18.06,0,0,0,0-3.82A1.6,1.6,0,0,0,208.93,480.61Z"/><path class="cls-9" d="M410.07,480.61c0-.17,0-.34,0-.51.1-2.38.48-4.72.49-7.11a1.5,1.5,0,0,1,3,0v.17s0,.08,0,.12c0,2.16-.37,4.29-.46,6.44a58.67,58.67,0,0,1,10.17-.38c2.29.06,4.53-.07,6.82-.2s4.43-.41,6.62-.35a5.22,5.22,0,0,1,1.15.16v-.1a13.15,13.15,0,0,1,.24-2.87,24.84,24.84,0,0,1,.59-3.21c.59-1.83,3.49-1,2.89.79a17.73,17.73,0,0,0-.72,5.51c0,1.58.34,3.36-.49,4.81s-2.62,1.86-4.11,2.26c-2,.53-4,.66-6.06,1.07a109.07,109.07,0,0,1-12.36,1.6,32,32,0,0,1-5.27.23,2.87,2.87,0,0,1-2.69-2.84,18.06,18.06,0,0,1,0-3.82A1.58,1.58,0,0,1,410.07,480.61Z"/><path class="cls-9" d="M385.71,480.42c0-.92,0-1.84,0-2.75s-.28-1.82-.25-2.72c.06-1.93-2.94-1.93-3,0a18.9,18.9,0,0,0,.26,2.25c.06.84,0,1.71,0,2.55,0,.55,0,1.09,0,1.64-2.11.08-4.18.41-6.27.66a60,60,0,0,1-6.71.31c-2.35,0-4.69.14-7,.24-1.1,0-2.2.08-3.31.15l-.71.07a8.06,8.06,0,0,0-2.56.11v-.06a7.2,7.2,0,0,1-.14-2.35,5.7,5.7,0,0,0-.13-3.49,1.28,1.28,0,0,0-.43-1.1,6.28,6.28,0,0,0-3.09-1.61,19,19,0,0,0-4.33-.09c-2.81.22-5.53.49-8.35.47-6.39,0-12.78,0-19.17,0s-12.87.13-19.3,0c-3.21-.07-6.42-.27-9.64-.25-3,0-6,.41-9,.33-1.57,0-3.09-.35-4.66-.36s-3.11.29-4.67.29a9.5,9.5,0,0,0-3.88.65,3.14,3.14,0,0,0-1.72,3.15,1.33,1.33,0,0,0,.52,1.14l-.12.62-.16,0a10.22,10.22,0,0,0-2,.06,1.6,1.6,0,0,0-1.54.25c-.69.15-1.36.34-2,.53H249.41c-3,0-5.93.06-8.89,0s-5.67-.45-8.49-.49c-.07-.63-.13-1.27-.21-1.9-.13-.93-.58-1.8-.7-2.73a1.55,1.55,0,0,0-1.5-1.5,1.5,1.5,0,0,0-1.5,1.5c.14,1,.51,1.94.7,2.93s.21,1.89.3,2.81a6.83,6.83,0,0,0,.8,2.56,8.56,8.56,0,0,0,1.24,2.19c1.16,1.12,3.11.7,4.56.7,2.26,0,4.49.24,6.75.26,4.58,0,9.16.61,13.74.53,2.29-.05,4.58-.24,6.87-.27a52.58,52.58,0,0,0,5.33,0c0,.49,0,1,0,1.47,0,1,0,2,0,3s.26,1.78.24,2.69c0,1.41-.14,3.05.93,4.14a1.36,1.36,0,0,0,1.82.18h10.43c3.69,0,7.37.27,11.06.26s7.29-.25,10.94-.25,7.29-.06,10.93-.18c7.46-.24,14.93-.06,22.39-.33,1.76-.07,3.53,0,5.3,0s3.75-.14,5.63-.23c2.4-.11,6.87,1.07,7.62-2.17.36-1.59-.14-3.32-.14-4.93,0-.69,0-1.37,0-2.05,1.4.09,2.79.3,4.21.3,2,0,3.92-.1,5.88-.1a58.31,58.31,0,0,0,6.06-.09c2-.21,3.89-.66,5.89-.73.9,0,1.78-.17,2.68-.23a14,14,0,0,0,2.81-.28c1.41-.39,1.81-1.35,2.35-2.59C386.23,483.88,385.71,482.18,385.71,480.42Zm-32.58,2.45a12.64,12.64,0,0,1,0,2.46c-.14,1.58-.52,3.08-.52,4.69s.11,3,.25,4.56a3.06,3.06,0,0,1,0,.8.1.1,0,0,0,0,.1l-.24-.05a16.88,16.88,0,0,0-2.25,0c-1.7-.05-3.37.1-5.07.19-3.36.18-6.73,0-10.1.13-7.05.28-14.11,0-21.17.28-3.4.11-6.79.15-10.19.15s-6.67.24-10,.25c-3.84,0-7.66-.25-11.5-.26H271.68V496c0-.76.06-1.51,0-2.26a51.63,51.63,0,0,1-.24-5.27,40.44,40.44,0,0,0-.58-4.93,14.58,14.58,0,0,1,.53-4.59,1.44,1.44,0,0,0-.12-1,11,11,0,0,1,1.58-.24c1.26-.06,2.51-.21,3.77-.26,2.54-.08,5,.39,7.55.37,1.28,0,2.51-.16,3.78-.29,1.44-.14,2.92-.06,4.36-.06,3,0,5.93.19,8.9.25,11.67.26,23.36,0,35,0l4.91,0c1.46,0,2.86-.16,4.31-.24s2.78-.27,4.19-.29a13.62,13.62,0,0,1,2.12.07,2,2,0,0,1,1,.39l.06.11c.81,1.05.08,2,.05,3.12A13.54,13.54,0,0,0,353.13,482.87Z"/><path class="cls-9" d="M364,425.76c-1.47-3.21-5.55-2.24-8.33-2.31-8.4-.23-16.78-.49-25.19-.43-4.26,0-8.5-.32-12.76-.34s-8.42,0-12.63,0c-8.59,0-17.19-.14-25.78,0-1.37,0-2.73.07-4.1.15-1.55-.06-3.11-.11-4.66-.1-1.18,0-2.34-.18-3.51-.26s-2.34,0-3.51-.12-2.54-.13-3.8-.15c-1.48,0-3.1-1.07-4.41.47a4.09,4.09,0,0,0-.8.64,3.89,3.89,0,0,0-.65,4.23c.3.86.4,1.77.71,2.64s.79,1.79,1.06,2.74a27.84,27.84,0,0,0,2.16,5c.91,1.74,2,3.37,3,5.05.82,1.35,1.4,2.85,2.26,4.17,1.89,2.9,6.19,4.32,9.44,4.84,1.9.31,3.83.27,5.74.46,2.1.21,4.28.09,6.39.09,4.29,0,8.57-.06,12.86-.06h13c4.17,0,8.33-.19,12.5-.24s8.61.08,12.91-.19c4.07-.25,8.2-.25,12.2-1.18a26.5,26.5,0,0,0,5.45-1.77c1.64-.79,2.11-2.13,3-3.56a71.55,71.55,0,0,0,5.74-10.35,31.49,31.49,0,0,0,1.65-5.09A6.66,6.66,0,0,0,364,425.76Z"/><path class="cls-4" d="M205.15,421.26c-.09-2.05-.43-4.07-.53-6.12a6.56,6.56,0,0,0-1.91-4.85,39,39,0,0,0-5-3.34c-1.78-1.19-3.56-2.35-5.44-3.37a32.34,32.34,0,0,0-5.72-2.16,12.09,12.09,0,0,1-3.13-1.76.71.71,0,0,0-.09-.07l-.13-.08c-.34-.23-.68-.45-1-.65-2.06-1.29-4.62-2.78-6.82-1.72-2.56,1.23-2.82,4.57-2.76,7.06a38.5,38.5,0,0,0,1.84,9.86c.22.76.45,1.5.68,2.24.06.45.12.89.2,1.34a20.92,20.92,0,0,0,0,2.24,4.12,4.12,0,0,0,2.45,3.74c1.46.63,3.12.92,4.63,1.42a25,25,0,0,0,5.66,1.19,27.32,27.32,0,0,1,5.81,1.09,12.82,12.82,0,0,0,4.34.74,11.39,11.39,0,0,0,3.64.8C206,428.84,205.28,424.05,205.15,421.26Z"/><path class="cls-4" d="M203.33,439.84c-.14-1-.08-2.1-.23-3.15a6.84,6.84,0,0,0-1.59-3.91c-1.23-1.19-3.12-1.37-4.75-1.49-2.06-.14-4.12.17-6.19.07a49,49,0,0,1-5.5-.95,26.49,26.49,0,0,0-5.07-.48,1.39,1.39,0,0,0-1.9-.41c-1.19.7-2.57,1.3-3.16,2.64a3,3,0,0,0-.11,2,11.37,11.37,0,0,1,.14,2.8V440a24.2,24.2,0,0,1,0,3.07,13.85,13.85,0,0,0-.38,2.12,6.58,6.58,0,0,0,.72,2.7c.73,1.46,2.47,2.37,3.93,3a20.21,20.21,0,0,0,5,1.21,36.18,36.18,0,0,0,5.5.33c1.92,0,3.77-.21,5.69-.32s3.87.25,5.59-.79a4.32,4.32,0,0,0,2.07-3.24c.25-1.89.1-3.81.35-5.71A9,9,0,0,0,203.33,439.84Z"/><path class="cls-4" d="M421,421.26c.09-2.05.43-4.07.53-6.12a6.57,6.57,0,0,1,1.92-4.85,38.29,38.29,0,0,1,5-3.34c1.77-1.19,3.55-2.35,5.44-3.37a31.94,31.94,0,0,1,5.71-2.16,12.09,12.09,0,0,0,3.13-1.76l.09-.07.13-.08c.34-.23.69-.45,1.05-.65,2.05-1.29,4.61-2.78,6.81-1.72,2.57,1.23,2.82,4.57,2.77,7.06a38.51,38.51,0,0,1-1.85,9.86c-.22.76-.44,1.5-.67,2.24-.06.45-.13.89-.2,1.34,0,.74.06,1.5,0,2.24a4.1,4.1,0,0,1-2.44,3.74c-1.46.63-3.12.92-4.64,1.42a24.8,24.8,0,0,1-5.66,1.19,27.23,27.23,0,0,0-5.8,1.09,12.92,12.92,0,0,1-4.35.74,11.34,11.34,0,0,1-3.64.8C420.23,428.84,420.91,424.05,421,421.26Z"/><path class="cls-4" d="M423.09,436.69a6.76,6.76,0,0,1,1.58-3.91c1.24-1.19,3.12-1.37,4.75-1.49,2.07-.14,4.13.17,6.19.07a49,49,0,0,0,5.5-.95,26.6,26.6,0,0,1,5.08-.48,1.39,1.39,0,0,1,1.9-.41c1.18.7,2.57,1.3,3.15,2.64a2.9,2.9,0,0,1,.12,2,11.38,11.38,0,0,0-.15,2.8c0,1,0,2,0,3.06a22.47,22.47,0,0,0,0,3.07,12.71,12.71,0,0,1,.37,2.12,6.58,6.58,0,0,1-.72,2.7c-.73,1.46-2.47,2.37-3.92,3a20.28,20.28,0,0,1-5,1.21,36.1,36.1,0,0,1-5.5.33c-1.92,0-3.77-.21-5.68-.32s-3.87.25-5.6-.79a4.32,4.32,0,0,1-2.07-3.24c-.25-1.89-.1-3.81-.35-5.71a9.44,9.44,0,0,1,.09-2.49C423,438.79,422.93,437.74,423.09,436.69Z"/><path class="cls-6" d="M195.12,407.26c-1.3.47-1.79,1.76-2.5,2.83-.92,1.39-1.93,2.71-2.84,4.1-1.81,2.8-3.46,5.67-5.2,8.51s-3.75,5.64-5.68,8.39c-2.1,3-4.32,5.87-6.44,8.83-1.13,1.58,1.47,3.08,2.59,1.52,3.87-5.41,7.93-10.7,11.53-16.29,1.64-2.53,3-5.23,4.67-7.74.88-1.33,1.73-2.68,2.64-4,.42-.62.9-1.2,1.32-1.82.23-.36.42-.76.66-1.12s.68-.56,0-.33C197.72,409.5,196.94,406.6,195.12,407.26Z"/><path class="cls-6" d="M200,421.93a1.52,1.52,0,0,0-2.12,0c-3.67,4.53-6.76,9.48-10.1,14.25a1.5,1.5,0,1,0,2.59,1.52c3.19-4.57,6.13-9.32,9.63-13.64A1.55,1.55,0,0,0,200,421.93Z"/><path class="cls-6" d="M452.17,398.21l-.23.25a1.63,1.63,0,0,0-.33.58c-1.08,1.7-1.86,3.6-2.84,5.35-1.2,2.14-2.58,4.19-3.79,6.33s-2.41,4.36-3.76,6.45-2.79,4-4.15,6-2.49,4-3.89,5.9-2.71,3.89-4.09,5.82a67.83,67.83,0,0,0-7.31,11.85c-.78,1.75,1.81,3.27,2.59,1.51a67.83,67.83,0,0,1,7.31-11.85c1.38-1.93,2.7-3.9,4.09-5.82s2.57-3.93,3.89-5.9,2.84-3.94,4.15-6,2.53-4.28,3.76-6.45,2.59-4.18,3.79-6.32c1.08-1.93,1.9-4.06,3.16-5.88C455.49,398.64,453.3,397,452.17,398.21Z"/><path class="cls-6" d="M451,417.41a1.52,1.52,0,0,0-1.5,1.5,2.89,2.89,0,0,1-.79,1.87c-.57.82-1.18,1.61-1.81,2.39a54,54,0,0,0-3.53,5c-2.29,3.6-4.68,7.13-6.93,10.75-1,1.65,1.58,3.16,2.59,1.52,2.38-3.84,4.91-7.57,7.32-11.38,1.14-1.79,2.43-3.41,3.72-5.08,1.07-1.39,2.64-3.15,2.43-5A1.54,1.54,0,0,0,451,417.41Z"/><path class="cls-5" d="M358.75,243.7c-1.53,1.79-2.67,3.79-4.38,5.44a70.09,70.09,0,0,0-5.11,4.94c-.71.84-1.52,1.51-2.29,2.27s-1.59,1.76-2.44,2.59c-1.73,1.68-3.74,3.05-5.43,4.77-1.53,1.57-2.71,3.49-4.26,5-1.73,1.7-4.06,2.74-5.86,4.37-3.54,3.23-6.39,7.12-9.79,10.49a114.66,114.66,0,0,0-10,10.64c-2.93,3.79-5.94,7.55-9,11.22s-5.92,7.73-9.45,11.12-6.7,7.1-10.1,10.61a65.76,65.76,0,0,0-5.45,5.5c-.7.91-1.73,1.33-2.46,2.2s-1.34,1.94-2.12,2.85c-1.69,2-3.6,3.7-5.22,5.72-.73.92-1.67,1.58-2.46,2.44a29,29,0,0,1-2.76,2.56c-1.49,1.25.65,3.36,2.12,2.13a111.45,111.45,0,0,0,9.14-9.3c.79-.84,1.55-1.69,2.25-2.6a10.71,10.71,0,0,1,1.75-2.24,10.16,10.16,0,0,0,2.22-2.07,17.62,17.62,0,0,1,2.35-2.38c3.7-3.31,6.84-7.22,10.3-10.78,1.67-1.71,3.47-3.3,5.09-5.05s3-3.83,4.54-5.72c3.09-3.8,6.21-7.56,9.31-11.34,1.47-1.8,2.79-3.68,4.4-5.38s3.32-3.63,5.06-5.37,3.51-3.42,5.14-5.25,3.12-3.62,4.78-5.33c.79-.8,1.56-1.63,2.38-2.4a37.56,37.56,0,0,1,3.05-2.26,31.23,31.23,0,0,0,2.83-2.13,26.54,26.54,0,0,0,2-2.37,44.53,44.53,0,0,1,5.63-5.61c2-1.69,3.72-3.7,5.68-5.47.95-.86,1.71-1.91,2.62-2.81s1.94-1.81,2.92-2.7a27.19,27.19,0,0,0,2.83-2.95c.85-1,1.51-2.24,2.38-3.26C362.11,244.36,360,242.23,358.75,243.7Z"/><path class="cls-5" d="M305.34,273.63c-1.68,1.72-3.07,3.73-4.91,5.28s-3.26,2.92-4.83,4.51-2.78,3.42-4.23,5.15c-1.59,1.89-3.39,3.63-5.08,5.43a23.59,23.59,0,0,0-1.92,2.41A25.07,25.07,0,0,1,282,299c-1.64,1.71-3,3.62-4.47,5.48s-3.07,3.66-4.52,5.56a56.17,56.17,0,0,1-4.42,5.42,1.5,1.5,0,0,0,2.12,2.12,49.43,49.43,0,0,0,4.36-5.33c1.46-1.94,3.08-3.75,4.58-5.65s2.83-3.77,4.47-5.48a30.66,30.66,0,0,0,2.31-2.52c.65-.84,1.23-1.71,2-2.49,1.7-1.8,3.49-3.54,5.09-5.43,1.45-1.72,2.63-3.55,4.22-5.15s3.12-3.07,4.83-4.51,3.23-3.56,4.92-5.27C308.82,274.38,306.7,272.25,305.34,273.63Z"/><path class="cls-9" d="M255.7,517.9a1.48,1.48,0,0,0,.47-1,9.27,9.27,0,0,0-.64-3c-.33-1.07-.51-2.18-.76-3.27a1.52,1.52,0,0,0-2.73-.38,7.4,7.4,0,0,0-3.67-.95c-2.79-.09-5.56.31-8.35.34-5.81.06-11.64-.55-17.45-.63-2.86,0-5.73.06-8.59-.07s-5.55-.32-8.34-.3c-3.15,0-6.22-.55-9.36-.66-2.29-.08-4.35-.15-5.9,1.78a1.64,1.64,0,0,0,.79,2.57,1.34,1.34,0,0,0,.89.62,6.64,6.64,0,0,0,2.5.34c.93-.12,1.77-.56,2.68-.74a31.44,31.44,0,0,1,6.21-.23c2.25,0,4.48.38,6.74.43s4.56,0,6.84,0c4.59-.07,9.14-.14,13.72.18s9.34.4,14,.4c1.21,0,2.42,0,3.63,0a5.11,5.11,0,0,1,2.82.37c.08,0,.14.11.21.16a6,6,0,0,1,.42.84v.23c.07,1.26.39,2.45.57,3.69a45.44,45.44,0,0,1,.77,7.15,1.5,1.5,0,0,0,3,0A50.58,50.58,0,0,0,255.7,517.9Z"/><path class="cls-9" d="M435,509.53a1.52,1.52,0,0,0-1.89-1.44,1.88,1.88,0,0,0-1.17.77,11.06,11.06,0,0,0-3.42.5,1.66,1.66,0,0,0-.31.12,14.63,14.63,0,0,0-3.6-.25c-2.7.06-5.42,0-8.12,0-3,0-6.11.2-9.11-.1a81.65,81.65,0,0,0-8.42-.36c-5.89,0-11.81,0-17.68.5-.59,0-1.31.1-2.08.18a1.57,1.57,0,0,0-2.27-1.28,14.18,14.18,0,0,0-1.65,1,2.9,2.9,0,0,0-.29.19,16.52,16.52,0,0,0-1.6,1.3c-2.39,1-4,2.67-2.89,5.75a1.7,1.7,0,0,0,.19.35c-.74,2.76-.5,5.73-.49,8.57a1.5,1.5,0,0,0,3,0c0-3.08-.44-6.4.91-9.27a11,11,0,0,0,.77-1.84,8,8,0,0,1,.27-.89l.22-.27.13,0a37.82,37.82,0,0,1,7.2-.9c5-.4,10-.3,15.06-.36s9.71.44,14.59.44c4.56,0,9.15-.17,13.71,0,.67,0,1.88,0,2.32.65s.06,1.85-.07,2.53c-.07.33-.16.64-.23,1L427,518.6c-.67,1.32-1.47,2.85-1.29,4.37a1.72,1.72,0,0,0,.11.42c-.43.9-.93,1.83-1.43,1.9-1.9.28-1.09,3.17.8,2.89,2.2-.32,2.93-3.09,3.93-4.71a64.42,64.42,0,0,0,4.58-8.09,8.72,8.72,0,0,0,1-4.19A3.07,3.07,0,0,0,435,509.53Z"/><path class="cls-5" d="M156.12,305.9a1.51,1.51,0,0,0-1.84,1.05,35.29,35.29,0,0,1-1.58,5.29c-.65,2-1.43,4-2.09,6-1.39,4.18-2.65,8.4-4.15,12.55-.66,1.82,2.24,2.6,2.89.8,1.5-4.15,2.76-8.37,4.15-12.56.66-2,1.45-4,2.09-6a34.49,34.49,0,0,0,1.58-5.29A1.55,1.55,0,0,0,156.12,305.9Z"/><path class="cls-5" d="M151.58,307.27a1.51,1.51,0,0,0-2.05-.54,4.43,4.43,0,0,0-1.67,2.51,22.13,22.13,0,0,1-1.13,2.71,35,35,0,0,0-2.32,6.9,1.54,1.54,0,0,0,1.05,1.85,1.53,1.53,0,0,0,1.85-1.05,32.26,32.26,0,0,1,1.92-6c.47-1,.93-1.95,1.31-3,.12-.33.22-.67.34-1a3.56,3.56,0,0,0,.18-.35s0,0,0,0l0,0A1.53,1.53,0,0,0,151.58,307.27Z"/><path class="cls-5" d="M481.61,329.88c-.47-1.22-.79-2.48-1.19-3.72-.83-2.54-1.91-5-3-7.42-1-2.29-1.66-4.73-2.44-7.1-.83-2.55-1.5-5.16-2.2-7.75a1.51,1.51,0,0,0-2.9.8c.66,2.44,1.3,4.9,2.07,7.31s1.43,4.75,2.36,7,2,4.65,2.87,7.05c.44,1.25.73,2.55,1.17,3.78a10.6,10.6,0,0,1,1,3.36,1.5,1.5,0,0,0,3,0A9.38,9.38,0,0,0,481.61,329.88Z"/><path class="cls-5" d="M475,328.75a3.14,3.14,0,0,1-.18-.31l-.09-.19h0c-.2-.56-.42-1.11-.61-1.68a39.11,39.11,0,0,1-1.31-5.33,1.51,1.51,0,0,0-1.85-1.05,1.54,1.54,0,0,0-1.05,1.84,39,39,0,0,0,1.54,5.94c.47,1.29,1,3.3,2.57,3.61a1.53,1.53,0,0,0,1.85-1A1.56,1.56,0,0,0,475,328.75Z"/><path class="cls-6" d="M183.05,365.23a9,9,0,0,0-1.1-2.61,3.37,3.37,0,0,0-3-1.45,17.55,17.55,0,0,0-2.49.27,33.53,33.53,0,0,0-3.65-.26,6,6,0,0,0-3.23.45,2.5,2.5,0,0,0-1.1,2.52c.07,1.05-.37,2-.29,3.09a32,32,0,0,1,.31,3.52,25.41,25.41,0,0,0,.1,3.27c.11,1.05.23,2.26,1.23,2.85a9,9,0,0,0,3,.71,28.76,28.76,0,0,0,3.57.44c2.06.1,4.44,0,5.73-1.86A5.71,5.71,0,0,0,183,374c.09-.45.14-.9.2-1.36s.08-.62.13-.95A15.05,15.05,0,0,0,183.05,365.23Z"/><path class="cls-6" d="M458.73,364.4a6,6,0,0,0-2.35-3.12,8.63,8.63,0,0,0-3.85-.95,21.43,21.43,0,0,0-4.45.27c-1.47.1-3-.24-4.35.41a3.43,3.43,0,0,0-1.91,2.43,1.44,1.44,0,0,0-.18.71c0,.68,0,1.36,0,2-.07,1.23-.21,2.45-.28,3.68a10.17,10.17,0,0,0,.52,4.81,1.32,1.32,0,0,0,1.68.66,2.41,2.41,0,0,0,.6.84,3.93,3.93,0,0,0,3.37.58c.38-.06.76-.15,1.15-.22a5.22,5.22,0,0,0,.57,0l1.29-.06c2.44-.13,5.78-.11,7.3-2.38,1.14-1.71.72-3.87.74-5.8C458.57,367,459.1,365.72,458.73,364.4Z"/><path class="cls-4" d="M456.16,366a4.71,4.71,0,0,0-4.08-2c-.67,0-1.33,0-2,0s-1.38-.08-2.07-.07a7,7,0,0,0-1.37.15,1.75,1.75,0,0,0-1.22,1.29,5.84,5.84,0,0,0-.14,1.91c0,.85.07,1.7.08,2.54,0,.57,0,1.15,0,1.72a1.55,1.55,0,0,0,.8,1.32,2,2,0,0,0,.58.57,2.59,2.59,0,0,0,1.55.34l.94-.12.4-.07h.08l.25,0a24.78,24.78,0,0,0,4.3-.53,1.47,1.47,0,0,0,1.26-.69s0,0,0-.05a2.33,2.33,0,0,0,.54-.87,4.19,4.19,0,0,0,.09-1.58,2,2,0,0,1,0-.35s0-.17,0-.2l0-.08.06-.19c.05-.17.11-.33.16-.5A3.18,3.18,0,0,0,456.16,366Z"/><path class="cls-4" d="M180.26,372.22c0-.08,0-.15-.07-.22a6.09,6.09,0,0,0,.17-1.57,5.75,5.75,0,0,0-.67-2.74c0-.08,0-.16,0-.24s0-.3,0-.45a3.6,3.6,0,0,0-.76-2,3.89,3.89,0,0,0-3.18-1,13.51,13.51,0,0,0-1.91,0,3.59,3.59,0,0,0-2.06,1,5.08,5.08,0,0,0-1.25,4.25c.08.77.22,1.53.34,2.3l0,.19a.39.39,0,0,1,0,.13V372a1.94,1.94,0,0,1,0,.24,5.24,5.24,0,0,1,0,1,1.52,1.52,0,0,0,1.5,1.5h0a2.69,2.69,0,0,0,.87.62,7.32,7.32,0,0,0,3.37.53c1.5,0,3.32-.55,3.67-2.25A3.06,3.06,0,0,0,180.26,372.22Z"/><path class="cls-9" d="M457.67,84.13c0-.85,0-1.71,0-2.56a6.16,6.16,0,0,0-.2-2.14,3.9,3.9,0,0,0-1.53-2A1.3,1.3,0,0,0,455,77l-.45-.18a1.35,1.35,0,0,0-1.2.2c-2.29.08-4.57.29-6.86.3-2.66,0-5.33,0-8,0s-5.16.37-7.75.33c-1.27,0-2.54-.08-3.8,0s-2.39.34-3.6.4c-9.68.43-19.4-.31-29.08,0-4.79.15-9.59.27-14.37.56s-9.73.08-14.58.08-9.83,0-14.75.15-9.71.46-14.58.52c-6.21.07-12.44,0-18.66,0l-.26,0h-10.6l-.26,0c-6.22,0-12.44,0-18.66,0-4.86-.06-9.72-.34-14.58-.52s-9.83-.15-14.75-.15-9.73.21-14.58-.08-9.57-.41-14.36-.56c-9.69-.31-19.41.43-29.08,0-1.22-.06-2.4-.33-3.61-.4s-2.53,0-3.79,0c-2.59,0-5.17-.32-7.76-.33s-5.32,0-8,0c-2.29,0-4.57-.22-6.85-.3a1.35,1.35,0,0,0-1.2-.2,4.69,4.69,0,0,0-.45.18,1.3,1.3,0,0,0-.9.49,4,4,0,0,0-1.53,2,6.41,6.41,0,0,0-.2,2.14c0,.85,0,1.71,0,2.56a25.18,25.18,0,0,0,.29,4.83,22,22,0,0,1,0,4.44,1.51,1.51,0,0,0,1.5,1.5,49,49,0,0,1,5.77.66,74.9,74.9,0,0,0-.13,8.61c0,3.78-.24,7.54-.31,11.31a96,96,0,0,0,.19,10.86c.32,3.63.12,7.33.12,11,0,7.49,0,15,0,22.45,0,3.55.35,7.08.33,10.63q0,5.67,0,11.35,0,6.38,0,12.74v6.11c0,.81,0,1.63,0,2.45,0,.42.08.85.09,1.27a1.4,1.4,0,0,0-.25,1.75l.25.45c0,1.06,0,2.12,0,3.17,0,1.51.1,3,0,4.54s-.44,3.11-.41,4.67c0,.74.16,1.48.11,2.22s-.28,1.31-.37,2c-.21,1.44,0,2.92-.15,4.37a16.78,16.78,0,0,0-.1,4.64,14.28,14.28,0,0,1,.51,3.48,1.37,1.37,0,0,0,.13.72c.57-1.37,1.18-2.72,1.78-4.08L176,231a21,21,0,0,1,.13-3.33c.13-1.43-.1-3,.16-4.37a13.61,13.61,0,0,0,.38-2.21c0-.74-.09-1.48-.11-2.22,0-1.48.35-3,.4-4.44s0-3,0-4.55c-.19-8.07-.16-16.14-.17-24.21,0-7.53.1-15.05-.28-22.57-.18-3.64-.05-7.32-.05-11V140.69c0-3.54,0-7.08,0-10.63,0-1.7-.11-3.37-.25-5.07-.15-1.87-.08-3.75-.08-5.62,0-4.26.23-8.5.31-12.76.08-3.55-.34-7.2.1-10.75,1.82.15,3.64.25,5.47.25,4.81,0,9.62-.29,14.43-.25,2.36,0,4.71.18,7.07.37a71.67,71.67,0,0,0,7.33,0c4.87-.09,9.73-.22,14.6-.35s9.62-.7,14.46-.69c2.39,0,4.79-.09,7.18,0s4.84.32,7.28.32c4.65,0,9.25.55,13.89.64,2.33,0,4.63.39,6.95.45s4.68.06,7,0c9.87-.11,19.75-.11,29.62-.11s19.75,0,29.63.11c2.34,0,4.67,0,7,0s4.63-.4,6.95-.45c4.64-.09,9.25-.63,13.9-.64,2.44,0,4.84-.19,7.28-.32s4.78,0,7.17,0c4.84,0,9.63.56,14.46.69s9.73.26,14.61.35a71.69,71.69,0,0,0,7.33,0c2.35-.19,4.7-.34,7.07-.37,4.81,0,9.62.26,14.43.25,1.82,0,3.65-.1,5.47-.25.43,3.55,0,7.2.09,10.75.09,4.26.33,8.5.32,12.76,0,1.87.06,3.75-.09,5.62-.13,1.7-.25,3.37-.25,5.07v22.08c0,3.66.13,7.34-.06,11-.38,7.52-.27,15-.28,22.57,0,8.14-.15,16.29-.15,24.43,0,1.85-.14,3.74,0,5.57a7.74,7.74,0,0,0,.69,2.68,4,4,0,0,1,.61,1.87c0,1.72-.3,3.29.58,4.87s3.53.18,2.59-1.51c-.68-1.21-.05-3-.25-4.35a6.8,6.8,0,0,0-.78-2.08,5.22,5.22,0,0,1-.48-2.13c-.1-2.81,0-5.63,0-8.44,0,0,0,0,0,0l.28-.51a1.4,1.4,0,0,0-.24-1.75c0-.42.06-.85.08-1.27.05-.82,0-1.64,0-2.45v-6.11q0-6.36,0-12.74c0-3.79,0-7.57,0-11.35,0-3.55.34-7.08.34-10.63V137.31c0-3.64-.2-7.34.13-11a100.88,100.88,0,0,0,.19-10.86c-.08-3.77-.35-7.53-.32-11.31a74.9,74.9,0,0,0-.12-8.61,48.83,48.83,0,0,1,5.76-.66,1.38,1.38,0,0,0,.93-.33,1.34,1.34,0,0,0,.57-1.17,22.72,22.72,0,0,1,.05-4.44A24.4,24.4,0,0,0,457.67,84.13Zm-3.38,5.32a18.09,18.09,0,0,0,0,2.55c-1.77.15-3.54.47-5.31.68a1.6,1.6,0,0,0-1.24.13c-2.6.22-5.19.32-7.79.29C434.48,93,429,92.69,423.55,93c-2.36.12-4.69.39-7.06.38s-4.9-.08-7.36-.08-4.95-.23-7.44-.29-4.78-.1-7.18-.28c-9.61-.7-19.17-.33-28.79-.06-2.31.06-4.59.28-6.89.46s-4.58.09-6.87.35a111.33,111.33,0,0,1-14.15.22c-8.67-.14-17.33-.09-26-.07s-17.33-.07-26,.07a111.46,111.46,0,0,1-14.16-.22c-2.29-.26-4.58-.18-6.87-.35s-4.58-.4-6.88-.46c-9.62-.27-19.18-.64-28.8.06-2.4.18-4.78.22-7.18.28s-5,.29-7.44.29-4.9.07-7.36.08-4.7-.26-7.06-.38c-5.46-.28-10.92.06-16.39.13q-3.9,0-7.78-.29a1.6,1.6,0,0,0-1.24-.13c-1.77-.21-3.55-.53-5.32-.68a16.7,16.7,0,0,0,0-2.55c-.13-1.3-.37-2.54-.38-3.86s0-2.78,0-4.17c0-.67,0-1.15.36-1.47,2.27,0,4.53.25,6.8.32s4.73,0,7.09,0,4.55.13,6.83.27,4.55-.11,6.82.06c1,.09,2.08.32,3.13.37,1.31.07,2.62.09,3.93.09,2.39,0,4.77,0,7.15-.06,4.86-.08,9.72,0,14.59-.06s9.79.14,14.65.39,9.51.3,14.29.3,9.64-.07,14.46,0,9.88.4,14.82.55c9.3.29,18.62.17,27.93.12s18.64.17,27.93-.12c4.95-.15,9.88-.45,14.82-.55s9.65,0,14.47,0,9.51-.06,14.29-.3,9.79-.41,14.65-.39,9.72,0,14.58.06c2.38,0,4.77.08,7.15.06,1.31,0,2.63,0,3.93-.09,1.06,0,2.09-.28,3.14-.37,2.26-.17,4.54.08,6.81-.06s4.55-.27,6.84-.27,4.73,0,7.09,0S452,80,454.31,80c.38.32.36.8.35,1.47,0,1.39,0,2.78,0,4.17A38.21,38.21,0,0,1,454.29,89.45Z"/><path class="cls-5" d="M354.79,443.51c-2.71,0-5.38.52-8.09.66s-5.43,0-8.14,0c-5.44,0-10.89-.08-16.32,0-2.41,0-4.73.65-7.12.76-2.61.12-5.23-.08-7.84-.08h-17c-2.81,0-5.7-.27-8.47.29-3.05.62-6.12.4-9.23.39a1.5,1.5,0,0,0,0,3,53.38,53.38,0,0,0,8.1-.12c1.17-.17,2.31-.53,3.49-.59,1.37-.07,2.75,0,4.12,0H305q3.92,0,7.83.09a66.29,66.29,0,0,0,7.45-.67c2.66-.24,5.36-.1,8-.1h8.3c3,0,5.91,0,8.87,0,3.11,0,6.17-.66,9.28-.69A1.5,1.5,0,0,0,354.79,443.51Z"/><path class="cls-5" d="M234.93,441.45H215.07a1.5,1.5,0,0,0,0,3h19.86A1.5,1.5,0,0,0,234.93,441.45Z"/><path class="cls-5" d="M415.75,440.77c-4.16,0-8.29.65-12.45.68-2.08,0-4.17-.08-6.24.06s-4,.45-6,.63-1.93,3.17,0,3,3.82-.48,5.74-.62c2.14-.15,4.31,0,6.46-.07,4.16,0,8.29-.66,12.45-.68A1.5,1.5,0,0,0,415.75,440.77Z"/></svg>