<svg enable-background="new 0 0 122.88 119.74" viewBox="0 0 122.88 119.74" xmlns="http://www.w3.org/2000/svg"><path clip-rule="evenodd" d="m47.46 72.38c5.54 16.29 28.66 16.88 33.86 0 1.97 1.77 5.19 3.09 8.86 4.19l-11.87 13.5c4.37 1.39 7.38 3.47 9.36 5.89l11.28-17.18c5.31 1.21 10.39 2.34 13.33 3.98 2.13 1.19 4.06 2.7 5.6 4.75 3.23 4.26 9.83 31.34-.88 32.16h-36.92c-.37.06-.73.09-1.1.09h-74.77c-2.32 0-4.21-1.88-4.21-4.21 0-.63.14-1.23.39-1.77l8.64-22.78c.15-.4.35-.75.59-1.07.44-1.07.88-1.9 1.26-2.41 1.55-2.05 3.47-3.56 5.6-4.75 6.75-3.78 24.86-4.88 30.98-10.39zm2.21 30.4-.01 4.46-5.4.04-.04 5.4-4.45-.01.04-5.37-5.38.04.01-4.46 5.4-.04.04-5.4 4.45.01-.04 5.37zm30.95-84.9 4.2 4.21-5.06 5.13 5.06 5.13-4.21 4.2-5.03-5.1-5.04 5.11-4.2-4.22 5.06-5.13-5.06-5.13 4.21-4.2 5.03 5.1zm-67.66 74.58h51.73c32.2 0 21.4 23.08 14.29 23.08h-74.77zm30.26-53.83c-1.16.05-2.04.29-2.64.69-.34.23-.6.52-.76.87-.18.39-.26.86-.25 1.4.05 1.59.88 3.67 2.49 6.07l.02.03 5.24 8.32c2.1 3.34 4.3 6.74 7.03 9.24 2.63 2.4 5.82 4.03 10.04 4.04 4.57.01 7.91-1.68 10.62-4.22 2.82-2.64 5.05-6.26 7.24-9.87l5.9-9.71c1.1-2.51 1.5-4.19 1.25-5.17-.15-.59-.8-.87-1.9-.93-.23-.01-.47-.01-.72-.01-.26.01-.54.03-.82.05-.16.01-.31 0-.45-.03-.52.03-1.06-.01-1.62-.09l.49-2.15 2.63-2.62c1.21-1.2 1.22-3.16.02-4.38l-.99-1 3.63.95-.16 6.63c1.45.44 2.38 1.36 2.76 2.85.42 1.65-.04 3.98-1.44 7.15-.03.06-.06.11-.09.17l-5.97 9.83c-2.3 3.79-4.63 7.58-7.75 10.5-3.23 3.02-7.2 5.03-12.64 5.02-5.08-.01-8.9-1.95-12.03-4.82-3.03-2.77-5.34-6.34-7.54-9.84l-5.23-8.32c-1.91-2.86-2.91-5.47-2.97-7.61-.03-1.01.14-1.92.51-2.72.39-.84.99-1.55 1.8-2.09.38-.25.8-.47 1.27-.65-.34-4.51-.47-10.2-.25-14.97.11-1.13.33-2.26.65-3.39.05-.17.1-.34.15-.51l22.72 5.93c.15.35.37.69.65.98l2.91 2.95-.76.77c-7-1.81-14.06-3.26-22.4.18l1.14 10.54c-.62.05-1.22.02-1.78-.06zm.14-27.5c8.86-15.58 29.32-13.81 41.36-.79 2.91 3.15 4.73 7.31 5.13 12.83v.09l-1.99-.52c.21-.99-.07-2.07-.84-2.84l-4.2-4.21-.02-.02c-1.22-1.2-3.19-1.19-4.4.04l-2.82 2.86-2.82-2.86c-1.21-1.22-3.18-1.22-4.4-.01l-1.56 1.56z" fill-rule="evenodd"/></svg>