<svg enable-background="new 0 0 122.88 82.71" viewBox="0 0 122.88 82.71" xmlns="http://www.w3.org/2000/svg"><path clip-rule="evenodd" d="m50.7 36.7-.16-.68c-2.39.65-4.79.86-7.21.78-2.76-.09-5.52-.56-8.28-1.19-1.35-.31-2.53-.64-3.65-.96-2.52-.71-4.74-1.33-7.8-1.36-.03 0-.05 0-.08 0l-11.07-.94-2.18 3.14c6.36 2.46 14.26 4.18 21.86 4.85 7.17.63 14.04.34 19.05-1.14zm53.95 9.56c10.07 0 18.23 8.16 18.23 18.23s-8.16 18.23-18.23 18.23-18.23-8.16-18.23-18.23c0-6.08 2.97-11.46 7.54-14.77l-5.29-10.4-9.71 29.2h-4.29c0 .12 0 .24-.02.35-.36 1.98-.97 3.58-1.83 4.78-.96 1.34-2.21 2.2-3.76 2.57-1.89.45-7.19-.4-10.65-.95-.92-.15-1.71-.27-2.22-.34l-11.41-1.53-.05.18c-.27 1.08-1.32 1.79-2.44 1.61l-7.08-1.16c-.76 1.2-1.66 2.3-2.67 3.29-3.35 3.28-7.99 5.31-13.1 5.31s-9.74-2.03-13.1-5.31c-3.36-3.29-5.44-7.83-5.44-12.84s2.08-9.55 5.44-12.84c3.35-3.28 7.99-5.31 13.1-5.31s9.74 2.03 13.1 5.31c3.36 3.29 5.44 7.83 5.44 12.84 0 .56-.03 1.11-.08 1.65l6.17 1.71c1.06.29 1.72 1.34 1.56 2.4l10.97 1.47c.57.08 1.37.2 2.31.35 3.2.51 8.11 1.29 9.4.99.76-.18 1.38-.62 1.87-1.3.56-.78.97-1.87 1.24-3.25h-26.05c-7.92-26.98-27.72-30.68-39.08-21.02l-6.29-.08c1.88-4.56 6.3-7.52 11.67-9.11-1.19-.41-2.33-.84-3.43-1.3-.09-.03-.17-.07-.25-.13-.49-.34-.61-1.01-.27-1.5l3.29-4.74c.21-.32.59-.52 1-.49l11.69.99c3.33.05 5.65.7 8.29 1.44 1.1.31 2.26.63 3.55.93 2.64.61 5.27 1.06 7.86 1.14 2.49.08 4.97-.17 7.42-.96.8-.71 1.61-1.39 2.45-2.04.87-.68 1.79-1.34 2.77-1.99 2.61-1.74 5.29-3.13 8.12-4.08 2.85-.95 5.84-1.45 9.07-1.39 1.99.04 3.92.34 5.75.97 1.26.44 2.48 1.03 3.64 1.79.01-.2.08-.4.2-.56l-5.77-4.33h-9.02c-1.05 0-1.89-.85-1.89-1.89 0-1.05.85-1.89 1.89-1.89h8.31v-7.54h.01v-.04c.01-.25 0-.48-.03-.68-.02-.17-.06-.33-.11-.49-.16-.49-.5-.7-.96-.98-.03-.01-.05-.03-.08-.04-.05-.03-.1-.06-.22-.13l-.08 1.3c-.05.77-.71 1.36-1.49 1.31-.77-.05-1.36-.71-1.31-1.49l.52-8.19c.05-.77.71-1.36 1.49-1.31.77.05 1.36.71 1.31 1.49l-.24 3.73 1.05.64.39.23c.03.01.05.03.07.05 1 .58 1.73 1.04 2.22 2.53.1.3.17.63.22 1 .04.33.06.69.05 1.07v8.19l3.66 2.74.33-.38-.86-.62c-.48-.35-.59-1.03-.24-1.51.03-.04.06-.08.09-.11l3.37-3.93c.39-.45 1.07-.51 1.52-.12l.02.02 3.15 2.59c.46.38.53 1.06.15 1.52l-.02.03-3.29 3.75c-.13.15-.29.25-.46.31l-1.17.4 1.07.8.03.03.32-.16c.53-.26 1.18-.04 1.45.49l.02.03 1.54 2.94c.74-1.66 2.39-2.8 3.83-3.8.3-.21.6-.42.86-.61 1.13-.84 2.18-1.38 3.13-1.62 1.05-.27 2-.19 2.81.21.81.41 1.44 1.12 1.85 2.13.37.91.57 2.06.57 3.44v3.98c0 .05 0 .11-.01.16-.11 1.76-.51 3.03-1.14 3.89-.39.53-.85.9-1.38 1.14s-1.1.33-1.7.3c-1.29-.07-2.74-.74-4.24-1.85l-1.15-.85 6.79 12.58c1.46-.37 3.01-.57 4.6-.57zm-8.84 2.28c.69-.39 1.41-.73 2.16-1.02l-11.02-20.62c-.03.05-.06.1-.1.15-.45.28-1.01.63-1.55.75zm-82.97 10.68 4.52 1.25c.33-.16.67-.28 1.04-.36l.28-7.2h-.05l-.09.01c-.08.01-.16.01-.24.02h-.03-.01c-.09.01-.17.02-.26.03l-.09.01c-.06.01-.12.02-.17.02l-.1.02c-.06.01-.12.02-.17.03l-.09.02c-.07.01-.14.03-.21.04l-.05.01c-.09.02-.17.04-.26.06l-.08.02c-.06.01-.12.03-.18.04l-.1.03-.17.05-.09.02c-.07.02-.14.04-.2.06l-.05.01c-.08.03-.16.05-.24.08l-.09.03c-.05.02-.11.04-.16.06l-.1.04-.15.06-.1.04c-.05.02-.1.04-.15.06l-.09.04c-.07.03-.15.06-.22.1l-.09.04-.14.07-.11.05-.12.06-.11.06-.12.04-.1.05h-.01c-.07.04-.13.07-.2.11l-.12.07-.09.05c-.04.02-.08.05-.12.08l-.09.06-.12.08-.09.06-.13.08-.03.02c-.1.07-.2.14-.3.21l-.06.04-.13.1-.07.06c-.04.03-.08.06-.12.1l-.06.05c-.15.12-.3.25-.45.38l-.03.02c-.04.04-.09.08-.13.12l-.05.05c-.04.04-.08.08-.13.12l-.05.05c-.04.04-.08.08-.12.12l-.02.02c-.15.15-.29.3-.42.45l-.03.03c-.04.05-.08.1-.13.15l-.01.03c-.15.17-.29.35-.43.54zm12.22 3.38 6 1.66c-.03-1.53-.36-3-.93-4.33zm2.51 10.19-7.26-1.19-.11 4.48.12-.01h.05c.09-.01.17-.01.26-.02l.06-.01c.08-.01.15-.02.23-.03h.04l.24-.03.08-.01c.08-.01.16-.03.25-.04h.01c.08-.01.16-.03.24-.05l.06-.01c.08-.02.16-.03.24-.05l.04-.01c.07-.02.14-.03.21-.05l.06-.02c.08-.02.16-.04.23-.06l.06-.02c.07-.02.15-.04.22-.07l.02-.01h.01c.07-.02.15-.05.22-.07l.08-.03c.07-.02.14-.05.21-.08l.06-.02c.06-.02.11-.04.17-.07l.08-.03c.07-.03.13-.05.2-.08l.09-.04.14-.06.08-.04.18-.09.11-.05.12-.06c.05-.03.1-.05.15-.08l.11-.06.11-.06c.05-.03.1-.05.15-.08.04-.02.08-.05.13-.07l.1-.06.11-.07.15-.09.12-.08.07-.04c.07-.05.14-.09.2-.14l.04-.03.12-.09.05-.03c.08-.06.15-.11.23-.17l.03-.03c.04-.03.08-.07.13-.1l.02-.01c.08-.06.16-.13.24-.19l.05-.04c.13-.11.25-.22.37-.33zm-9.41-1.54-6.88-1.13-1.49.81.01.02c.03.04.06.08.09.13l.06.09.09.12.06.09.09.12.06.08.09.12.07.08c.03.04.06.08.1.12.03.03.05.06.08.1.03.03.05.06.08.1.05.06.11.12.16.18l.1.11.08.08c.03.03.06.06.09.1l.09.1.09.08.1.1.09.09.09.09.1.09.09.08.1.08.11.09c.03.03.06.05.09.08.06.05.13.1.19.15l.08.06c.04.03.08.06.13.1l.1.08.1.08.11.08.11.08.11.08.11.07.11.07c.04.03.08.05.12.08l.1.06.15.09.08.05c.08.04.15.09.23.13l.08.04c.05.03.1.06.16.08l.1.05.14.07.1.05.14.07.11.05c.05.02.09.04.14.06l.1.04c.05.02.11.04.16.07l.09.04c.07.03.15.06.22.08l.03.01h.01c.08.03.16.06.25.09l.08.03c.06.02.11.04.17.06l.09.03c.06.02.12.03.17.05l.09.03.16.04.11.03c.06.01.12.03.17.04l.09.02c.06.01.12.03.19.04l.09.02c.08.02.15.03.23.04l.03.01c.09.02.18.03.26.04l.11.02c.05.01.11.02.16.02l.11.01zm-7.17-10.3-2.59-.05-2.3-.04-1.03 3.84 4.01 2.88 9.76 1.6 1.53.25 6.97 1.14 1.82.3 7.16 1.17 6.15 1.01c.31-.52.81-2.59 1.04-3.07l.01-.04-7.83-2.16-4.79-1.32-15.48-4.27-3.46-.96zm84.08-34.95c-1.29.9-2.8 1.94-3.08 3.11-.13.54-.16.82-.08.96.09.18.41.42.9.78l3.06 2.25c1.12.82 2.13 1.32 2.9 1.37.21.01.39-.01.54-.08.14-.06.27-.18.39-.34.35-.48.59-1.31.66-2.56v-.01-3.98c0-1.07-.13-1.9-.37-2.49-.17-.42-.4-.7-.66-.83s-.62-.14-1.07-.03c-.64.16-1.4.56-2.26 1.2-.29.21-.6.42-.93.65zm-12.51 6-.11-2.51c-1.3-1.04-2.7-1.79-4.18-2.29-1.63-.56-3.33-.83-5.09-.86-2.97-.06-5.73.4-8.35 1.28-2.64.88-5.15 2.19-7.6 3.83-.89.59-1.77 1.23-2.64 1.91-.7.54-1.37 1.09-2.01 1.66l.22 1.14.65 2.74 24.76.09h.1c.66.06 1.23.02 1.72-.11.44-.13.82-.34 1.13-.62 1.6-1.46 1.5-3.96 1.41-6.14zm-36.8 14.19 9.51-.13c.69-.01 1.34.58 1.26 1.26l-.71 6.13c-.08.69-.57 1.26-1.26 1.26h-6.01c-.69 0-.97-.63-1.26-1.26l-2.8-6c-.29-.63.57-1.25 1.27-1.26zm22.3-.76h8.6c.69 0 1.42.59 1.26 1.26l-1.82 7.74c-.16.67-.57 1.26-1.26 1.26h-6.01c-.69 0-1.19-.57-1.26-1.26l-.78-7.74c-.06-.69.58-1.26 1.27-1.26zm-53.69 23.01-3.09 1.68zm3.69.61.78.13zm11.04-11.02c-1.84-2.74-4.82-4.65-8.26-5.06l-.27 7.19c.81.21 1.53.63 2.1 1.2l.04.04zm-17.12 15.35c.03.03.06.05.09.08zm92.13-13.37.28-7.3c-3.63.08-6.85 1.8-8.96 4.45l6.45 4.06c.6-.6 1.37-1.02 2.23-1.21zm2.43-7.16-.27 7.2c.8.21 1.53.63 2.1 1.2l.04.04 6.12-3.23c-1.77-2.72-4.64-4.67-7.99-5.21zm9 7.13-6.02 3.18c.13.43.21.89.21 1.36 0 .42-.05.82-.16 1.2l5.8 3.65c.68-1.49 1.06-3.15 1.06-4.89 0-1.59-.31-3.11-.89-4.5zm-1.25 11.27-5.76-3.63c-.05.06-.11.11-.16.17-.62.62-1.4 1.06-2.28 1.25l-.18 7.15c3.46-.36 6.48-2.23 8.38-4.94zm-10.54 4.97.18-7.23c-.8-.21-1.52-.63-2.09-1.2-.08-.09-.17-.17-.24-.26l-6.65 3.62c1.95 2.85 5.14 4.8 8.8 5.07zm-9.86-6.96 6.72-3.66c-.08-.35-.13-.71-.13-1.08 0-.52.09-1.02.24-1.48l-6.48-4.08c-.88 1.65-1.37 3.52-1.37 5.52.01 1.7.37 3.32 1.02 4.78zm13.07-6.6c-.47-.47-1.13-.76-1.86-.76s-1.38.29-1.86.77c-.12.12-.23.25-.32.39-.01.02-.02.04-.04.06-.01.02-.03.04-.04.06-.23.39-.36.85-.36 1.33 0 .73.29 1.38.77 1.86.47.47 1.13.77 1.86.77.72 0 1.38-.29 1.86-.77.14-.14.26-.29.36-.45.03-.09.07-.18.12-.27.02-.04.05-.07.07-.1.14-.32.21-.67.21-1.04 0-.72-.29-1.37-.77-1.85z" fill-rule="evenodd"/></svg>