<svg enable-background="new 0 0 122.88 42.59" viewBox="0 0 122.88 42.59" xmlns="http://www.w3.org/2000/svg"><path clip-rule="evenodd" d="m0 27.89c.34-1.89 1.29-3.06 3.17-3.13-.16-1.98.2-3.65 1.07-5.02.41-.64.92-1.21 1.54-1.71 2.18-1.77 4.64-1.96 7.33-2.45 2.6-.47 5.21-.87 7.81-1.18 3.15-.37 6.3-.62 9.44-.71 1.46-.04 1.11.04 2.26-.85 5.66-4.38 11.83-7.97 18.3-11.08 2.26-1.11 5.14-1.66 8.53-1.76h20.3c4.48.02 8.29 1.05 11.5 2.98l12.31 9.47c4.1.27 8.21.54 12.31.81 2.51-.07 4.44.79 5.17 3.52v8.31c3.48.89 1.21 8.91-.35 10.67-1.38 1.55-2.62 1.37-4.47 1.37h-10.97c2.11-15.86-14.06-19.25-20.72-10.61-2.2 2.85-2.53 6.74-1.62 11.31h-49.81c2.55-11.75-5.04-16.54-12.02-15.85-8.98.88-11.34 8.08-9.8 15.99h-7.77c-2.22.1-3.25-1.67-3.51-4.66zm93.9-3.14c4.93 0 8.92 3.99 8.92 8.92s-3.99 8.92-8.92 8.92-8.92-3.99-8.92-8.92 3.99-8.92 8.92-8.92zm-70.58 4.66v3.21h3.21c-.39-1.58-1.63-2.82-3.21-3.21zm3.21 5.31h-3.21v3.21c1.58-.39 2.82-1.63 3.21-3.21zm-5.31 3.21v-3.21h-3.21c.39 1.58 1.63 2.82 3.21 3.21zm-3.21-5.31h3.21v-3.21c-1.58.39-2.82 1.63-3.21 3.21zm76.94-3.21v3.21h3.21c-.39-1.58-1.63-2.82-3.21-3.21zm3.21 5.31h-3.21v3.21c1.58-.39 2.82-1.63 3.21-3.21zm-5.31 3.21v-3.21h-3.21c.39 1.58 1.63 2.82 3.21 3.21zm-3.21-5.31h3.21v-3.21c-1.58.39-2.82 1.63-3.21 3.21zm-67.37-7.87c4.93 0 8.92 3.99 8.92 8.92s-3.99 8.92-8.92 8.92-8.92-3.99-8.92-8.92 3.99-8.92 8.92-8.92zm64.56-8.92 1.68-9.88 5.9 7.43-1.11 1.26-1.05 1.19zm-48.35-3.95v3.84h24.87l1.81-13.37h-6.82c-4.24.5-4.93.64-8.79 2.68-3.17 1.68-6.07 3.54-9.16 5.55-.63.43-1.28.86-1.91 1.3zm30.6-9.68-2.01 13.52h17.89l1.77-12.09c-7.37-1.79-10.46-1.43-17.65-1.43z" fill-rule="evenodd"/></svg>