<svg viewBox="0 0 122.88 117.34" xmlns="http://www.w3.org/2000/svg"><path d="m48.17 7.08a6.63 6.63 0 1 0 -6.83 9.29l.76 1.5a24.7 24.7 0 0 0 -9 13.1l-7.81-4.15a9 9 0 1 0 -3.29 6.18l3.15 1.68a20.59 20.59 0 0 0 -3.19 2.51 25.68 25.68 0 0 0 -6.4 10.09c-.23.67-.44 1.36-.61 2.05a6.7 6.7 0 0 0 -2.09-.33 6.63 6.63 0 1 0 2.22 12.79 20.2 20.2 0 0 0 5.33 8.61l-11.36 6.11a6.63 6.63 0 1 0 4.19 5.76l6.38-3.45a15 15 0 0 0 -.05 3.41 12.59 12.59 0 0 0 2.31 6.21 10.45 10.45 0 0 0 5.54 3.86 11.19 11.19 0 0 0 2.22.42l-1.3 1.83a9 9 0 1 0 5.72 4.1l2.37-3.34a11.12 11.12 0 0 0 2.32 4 13.92 13.92 0 0 0 5.52 3.64 18.16 18.16 0 0 0 6.43 1.05 16.75 16.75 0 0 0 4.21-.53v.26a7.17 7.17 0 1 0 7.07.41l.42-3.35a27.51 27.51 0 0 0 4.7.93 25 25 0 0 0 15.74-3.52 25.34 25.34 0 0 0 2.42-1.67l1.47 2.08a9.39 9.39 0 0 0 -1 2.36 9 9 0 1 0 6.73-6.46l-2.26-3.1a25.51 25.51 0 0 0 2.8-4.85 24.94 24.94 0 0 0 1.67-5.51 16.74 16.74 0 0 0 6.51-3.48l8.67 3.07a6.62 6.62 0 1 0 2.21-6.64l-6.21-2.2a22.7 22.7 0 0 0 2.26-5.85 23.18 23.18 0 0 0 .44-8.46 24.79 24.79 0 0 0 -6.21-13.28l3.06-1.49a7.16 7.16 0 1 0 -2.68-6.56l-5.58 2.73a19.1 19.1 0 0 0 -1.14-10.89 13.84 13.84 0 0 0 -1.18-2.11l5.87-6.15a9 9 0 1 0 -5.12-4.84l-6 6.32a16.65 16.65 0 0 0 -7.85-1.79 15.55 15.55 0 0 0 -7.22 1.83 23 23 0 0 0 -2.76-2.65l.69-5.84a6.62 6.62 0 1 0 -7-1.25l-.43 3.32a24.15 24.15 0 0 0 -3.89-1.08 25 25 0 0 0 -9.56 0 23.29 23.29 0 0 0 -3.18.85l-.65-1.27a6.6 6.6 0 0 0 .46-6.27zm38.35 46.49a4.05 4.05 0 1 1 -5 2.87 4.05 4.05 0 0 1 5-2.87zm-17.92-11.57a6.22 6.22 0 1 1 -4.85 7.34 6.23 6.23 0 0 1 4.85-7.34zm-17.45-9.1a4.38 4.38 0 1 1 -3.42 5.17 4.38 4.38 0 0 1 3.42-5.17zm-13.64 27.4a5 5 0 1 1 -6.17 3.56 5 5 0 0 1 6.17-3.56zm17.75-7.89a6.79 6.79 0 1 1 -8.26 4.8 6.79 6.79 0 0 1 8.31-4.8zm-3.59 23.75a2.6 2.6 0 1 1 -3.19 1.84 2.61 2.61 0 0 1 3.19-1.84zm21.59-4.51a4.05 4.05 0 1 1 -5 2.87 4 4 0 0 1 5-2.87zm-17 26-.35-.32a13.52 13.52 0 0 1 -2-2.42 2.48 2.48 0 0 1 4.09-2.72 8.45 8.45 0 0 0 1.3 1.54 12.88 12.88 0 0 0 1.7 1.36 23 23 0 0 0 6.61 1.75 20 20 0 0 0 12.62-2.84 20.65 20.65 0 0 0 8.18-9.42 20.17 20.17 0 0 0 1.59-5.66c0-.07 0-.14 0-.22a13.72 13.72 0 0 0 0-2.78 12.32 12.32 0 0 0 -.52-2.54 2.47 2.47 0 1 1 4.71-1.5 17.39 17.39 0 0 1 .73 3.57v.26a14.06 14.06 0 0 0 5.88-5.19 18.11 18.11 0 0 0 2.48-5.77 18.36 18.36 0 0 0 .35-6.68c-.71-5.38-3.89-11-10.69-15.5a2.47 2.47 0 0 1 -1.06-2.63c1-4.24.65-7.49-.44-9.89a9.13 9.13 0 0 0 -4-4.32 11.61 11.61 0 0 0 -5.71-1.35 9.67 9.67 0 0 0 -6.16 2.09 2.8 2.8 0 0 1 -.68.43 5.75 5.75 0 0 0 -2.12 2.1 9.27 9.27 0 0 0 -1.48 3.58 2.47 2.47 0 1 1 -4.88-.79 14.2 14.2 0 0 1 2.25-5.54 12.61 12.61 0 0 1 1.72-2.08 18.85 18.85 0 0 0 -10.23-5.53 20 20 0 0 0 -7.67 0 18.68 18.68 0 0 0 -7.12 3c-3.87 2.7-6.92 7.12-8.13 13.39v.11a16.24 16.24 0 0 0 -.23 2.69 10.48 10.48 0 0 0 .32 2.52 2.48 2.48 0 1 1 -4.82 1.25 15.05 15.05 0 0 1 -.5-3.75c0-.24 0-.48 0-.72a13.47 13.47 0 0 0 -6.71 3.66 20.49 20.49 0 0 0 -5.12 8.12 18.9 18.9 0 0 0 -.82 9.71 15.94 15.94 0 0 0 7.35 10.45 3.37 3.37 0 0 1 .31.21 2.48 2.48 0 0 1 .4 3.48 12.62 12.62 0 0 0 -2.91 9 7.7 7.7 0 0 0 1.36 3.75 5.58 5.58 0 0 0 3 2.06c2.16.64 5.14.27 8.9-1.62a2.41 2.41 0 0 1 1.83-.19 2.47 2.47 0 0 1 1.69 3.06c-.96 3.18-.28 5.52 1.15 7.18a9.07 9.07 0 0 0 3.57 2.27 13.22 13.22 0 0 0 4.69.81 10.1 10.1 0 0 0 5.54-1.46z" fill-rule="evenodd"/></svg>