<svg enable-background="new 0 0 89.87 122.88" viewBox="0 0 89.87 122.88" xmlns="http://www.w3.org/2000/svg"><path clip-rule="evenodd" d="m33.1 16.49c2.42 0 4.39 1.96 4.39 4.39s-1.96 4.39-4.39 4.39c-2.42 0-4.39-1.96-4.39-4.39s1.97-4.39 4.39-4.39zm44.18 73.3h7.97l-1.04-21.79c-.07-1.43-.76-2.33-1.64-2.74-.39-.18-.84-.27-1.3-.27s-.91.09-1.3.27c-.88.4-1.57 1.31-1.64 2.74zm-50.5-11c-.81 0-1.47-.66-1.47-1.47s.66-1.47 1.47-1.47h12.65c.81 0 1.47.66 1.47 1.47s-.66 1.47-1.47 1.47zm0 8.56c-.81 0-1.47-.66-1.47-1.47s.66-1.47 1.47-1.47h12.65c.81 0 1.47.66 1.47 1.47s-.66 1.47-1.47 1.47zm3.89-17.13c-.81 0-1.47-.66-1.47-1.47s.66-1.47 1.47-1.47h4.85c.81 0 1.47.66 1.47 1.47s-.66 1.47-1.47 1.47zm-3.89 25.7c-.81 0-1.47-.66-1.47-1.47s.66-1.47 1.47-1.47h12.65c.81 0 1.47.66 1.47 1.47s-.66 1.47-1.47 1.47zm14.87-60.65c3.93 1.64 7.31 4.37 9.74 7.81 2.59 3.66 4.11 8.1 4.11 12.88v62.2c0 1.29-.53 2.47-1.39 3.33-.86.85-2.03 1.38-3.32 1.38h-35.37c-1.29 0-2.47-.53-3.33-1.38-.85-.86-1.38-2.03-1.38-3.32v-62.2c0-4.78 1.52-9.23 4.11-12.88 2.43-3.44 5.81-6.17 9.74-7.81v-8.38c0-.04 0-.09.01-.13-.08-.12-.16-.24-.24-.37h-19.55c-2.29 0-3.75-1.16-4.4-2.65-.26-.58-.39-1.22-.38-1.86.01-.63.14-1.27.4-1.85.67-1.5 2.13-2.67 4.32-2.67h.11c3.35.13 6.53.24 9.72.34 1.43.05 2.85.09 4.28.14l-14.74-9.24c-.06-.03-.12-.07-.18-.11-1.79-1.32-2.5-2.87-2.48-4.28.01-.78.24-1.5.64-2.11.38-.59.92-1.09 1.56-1.46 1.34-.76 3.15-.93 4.93-.1.04.02.09.05.14.08l19.61 11.04c1.43-.75 3.06-1.17 4.79-1.17 2.87 0 5.46 1.16 7.34 3.04.74.74 1.37 1.59 1.86 2.53h4.05c1.38 0 2.63.56 3.54 1.47.31.31.59.67.81 1.05h.02c3.47-.03 6.78.36 9.89 1.24 3.16.89 6.12 2.26 8.85 4.19 4.47 3.15 7.94 7.16 10.3 11.74 2.39 4.64 3.64 9.83 3.64 15.26v9.73c.36.1.71.24 1.06.39 2.32 1.06 4.14 3.29 4.3 6.67l1.09 22.82c.01.09.02.17.02.26 0 .96-.4 1.82-1.04 2.46-.6.6-1.43.98-2.33 1.02-.15.01-.14.01-.17.01h-10.12c-.03 0-.02 0-.17-.01-.9-.04-1.73-.43-2.33-1.02-.64-.63-1.04-1.5-1.04-2.46 0-.04 0-.01.01-.13v-.03l1.1-22.92c.16-3.38 1.98-5.61 4.3-6.67.25-.11.5-.21.75-.3v-9.82c0-4.71-1.07-9.19-3.13-13.17-2.03-3.92-5.01-7.38-8.87-10.09-2.3-1.62-4.8-2.78-7.46-3.53s-5.49-1.09-8.46-1.08c-.25.55-.6 1.05-1.02 1.47-.91.91-2.16 1.47-3.54 1.47h-4.27c-.14.24-.29.48-.45.7v.12h.01v8.36zm7.08 9.68c-2.25-3.18-5.45-5.65-9.18-7-.68-.2-1.18-.83-1.18-1.57v-5.88c-1.55.87-3.34 1.3-5.13 1.29-1.88 0-3.78-.48-5.43-1.4v5.99c0 .67-.42 1.3-1.09 1.54-3.76 1.34-6.99 3.82-9.26 7.03-2.2 3.11-3.5 6.91-3.5 11v62.2c0 .4.16.76.42 1.02l.01.01c.26.26.62.42 1.02.42h35.36c.4 0 .76-.16 1.02-.42l.01-.01c.26-.26.42-.62.42-1.02v-62.2c.01-4.09-1.29-7.89-3.49-11zm-27.31 15.28h23.37c.58 0 1.1.24 1.48.62l.01.01c.38.38.62.91.62 1.48v39.22c0 .58-.24 1.11-.62 1.49-.05.05-.09.09-.14.13-.37.31-.83.49-1.34.49h-23.38c-.58 0-1.11-.24-1.49-.62-.05-.05-.09-.1-.13-.15-.3-.37-.49-.83-.49-1.34v-39.22c0-.58.24-1.1.62-1.48l.01-.01c.37-.38.9-.62 1.48-.62zm22.53 2.94h-21.7v37.55h21.7zm-18.23-49.6-18.43-10.37c-.84-.39-1.65-.33-2.22 0-.23.13-.41.3-.54.49-.11.17-.17.37-.17.57-.01.53.36 1.19 1.28 1.88l17.73 11.11c.52-1.39 1.33-2.64 2.35-3.68zm-3 7.35c-2.82-.11-5.54-.19-8.26-.28-3.25-.11-6.51-.21-9.74-.34-.86.01-1.41.41-1.64.93-.1.21-.15.45-.15.68 0 .22.04.45.13.66.22.5.78.89 1.71.89h18.27c-.2-.81-.31-1.66-.32-2.54zm20.59-1.92c.11.61.17 1.23.17 1.87 0 .78-.09 1.53-.25 2.26h3.12c.57 0 1.08-.23 1.46-.61s.61-.89.61-1.46c0-.57-.23-1.08-.61-1.46-.37-.37-.89-.6-1.46-.6zm-4.95-3.39c-1.35-1.35-3.21-2.18-5.26-2.18s-3.91.83-5.26 2.18-2.18 3.21-2.18 5.26.83 3.91 2.18 5.26 3.21 2.18 5.26 2.18 3.91-.83 5.26-2.18c.56-.56 1.02-1.2 1.38-1.91.04-.16.12-.32.21-.45.38-.89.59-1.87.59-2.9 0-.92-.17-1.81-.48-2.63-.06-.1-.1-.22-.14-.33-.37-.87-.9-1.64-1.56-2.3zm38.87 75.31v.01.02c0 .01 0-.01 0-.03z" fill-rule="evenodd"/></svg>