<svg viewBox="0 0 122.88 91.89" xmlns="http://www.w3.org/2000/svg"><path d="m46.82 34.74c-13.7.1-20.43-.88-24.49 10.31a28.59 28.59 0 0 0 -1.81 7.82c-20.52 8.07-17.26 3.06-20.52 25.72h5.65c2.61-20.35 28.26-17.89 29.05 0h36.74a15.44 15.44 0 0 1 26.26-9.25 15.47 15.47 0 0 1 4.43 9.23h15.26a5.28 5.28 0 0 0 5.27-5.27v-12h-75.84zm17.77-28.74h.67a6 6 0 0 1 6 6v4.2h-12.69v-4.2a6 6 0 0 1 6-6zm-3.12 8.81h-1.23v-.81c0-1.7 0-3.15 1.39-4.64a5.05 5.05 0 0 1 1.41-1 11.55 11.55 0 0 0 -1.57 6.52zm4.85-11.59a1.4 1.4 0 0 1 -2.79 0v-1.82a1.4 1.4 0 1 1 2.79 0zm-10.57 4.78a1.39 1.39 0 0 1 -1.38 2.41l-1.58-.91a1.39 1.39 0 0 1 1.38-2.41zm19.73 2.34a1.39 1.39 0 1 1 -1.38-2.34l1.57-1a1.39 1.39 0 1 1 1.39 2.41l-1.58.91zm-15.61-6.42a1.38 1.38 0 0 1 -2.4 1.38l-.92-1.58a1.39 1.39 0 0 1 2.45-1.38l.91 1.58zm12.51 1.38a1.38 1.38 0 1 1 -2.38-1.38l.91-1.58a1.39 1.39 0 0 1 2.39 1.38zm-23.3 53.9h73.8v-38.34a3.6 3.6 0 0 0 -3.57-3.56h-66.66a3.63 3.63 0 0 0 -3.57 3.56zm33.83-34.81h6a2.06 2.06 0 0 1 2.09 2.05v6.83h6.83a2.05 2.05 0 0 1 2 2v6a2.05 2.05 0 0 1 -2 2h-6.83v6.66a2.07 2.07 0 0 1 -2.06 2h-6a2.06 2.06 0 0 1 -2-2v-6.52h-6.94a2.06 2.06 0 0 1 -2.06-2v-6a2.06 2.06 0 0 1 2.06-2h6.83v-6.97a2.05 2.05 0 0 1 2-2.05zm3.88 44.25a11.63 11.63 0 1 1 -11.62 11.62 11.63 11.63 0 0 1 11.62-11.62zm0 7.15a4.47 4.47 0 1 1 -4.47 4.47 4.47 4.47 0 0 1 4.47-4.47zm-66.62-8.18a11.63 11.63 0 1 1 -11.62 11.62 11.63 11.63 0 0 1 11.62-11.62zm0 7.15a4.47 4.47 0 1 1 -4.47 4.47 4.48 4.48 0 0 1 4.47-4.47zm13.27-33.9 6.56-.11v12.12h-12.15c.6-3.95 2.17-8.62 5.59-12z" fill-rule="evenodd"/></svg>