<svg enable-background="new 0 0 122.88 122.88" viewBox="0 0 122.88 122.88" xmlns="http://www.w3.org/2000/svg"><path clip-rule="evenodd" d="m61.44 0c33.93 0 61.44 27.51 61.44 61.44s-27.51 61.44-61.44 61.44-61.44-27.51-61.44-61.44 27.51-61.44 61.44-61.44zm0 29-31.38 30.74 7.65 4.02 23.52-24.69 23.92 24.7 7.66-4.02zm-22.05 38.13 22.08-22.09 22.02 22.09v21.67h-16.09v-15.3h-12.06v15.3h-15.95zm22.05-58.04c28.91 0 52.35 23.44 52.35 52.35s-23.44 52.35-52.35 52.35-52.35-23.44-52.35-52.35 23.44-52.35 52.35-52.35z" fill-rule="evenodd"/></svg>