<svg enable-background="new 0 0 122.88 100.89" viewBox="0 0 122.88 100.89" xmlns="http://www.w3.org/2000/svg"><path clip-rule="evenodd" d="m115.39 56.45-.07 2.6-25.02 7.27-1.46-3.2c-.81-1.66-4.09-.71-3.37 1.76 1.04 3.54 2.64 6.28 4.16 9.07 8.37 15.42 37.85 10.55 29.51-13.36l-.07-4.54c2.24-.97 3.81-3.2 3.81-5.8 0-3.49-2.83-6.32-6.32-6.32-.08 0-.16 0-.24 0l2.73-1.16-12.2-31.65c-3.79-11.78-7.85-13.33-14.43-8.71l-34.57 32.95-.84-.84h-7.55c-2.3 0-4.18 1.88-4.18 4.18v15.97h-11.54v-.77c0-1.5-1.23-2.73-2.73-2.73h-15.27c-1.5 0-2.73 1.23-2.73 2.73v.77h-4.22c-2.86 0-5.2 2.34-5.2 5.2v6.49c0 2.87 2.35 5.21 5.21 5.21h55.25c2.87 0 5.21-2.35 5.21-5.21v-8.22-3.47-7.88l-1.84-1.85 27.97-29.54 14.18 31.39 2.62-1.11c-1.2 1.15-1.94 2.77-1.94 4.56-.01 3.09 2.21 5.66 5.14 6.21zm-101.8 17.27h45.48c7.47 0 13.59 6.11 13.59 13.59 0 7.47-6.11 13.59-13.59 13.59h-45.48c-7.48-.01-13.59-6.12-13.59-13.6 0-7.47 6.11-13.58 13.59-13.58zm3.86 12.36c.16 0 .28.55.28 1.23s-.13 1.23-.28 1.23h-1.09v1.09c0 .16-.55.28-1.23.28s-1.23-.13-1.23-.28v-1.09h-1.09c-.16 0-.28-.55-.28-1.23s.13-1.23.28-1.23h1.09v-1.09c0-.16.55-.28 1.23-.28s1.23.13 1.23.28v1.09zm38.97-1.1c0-.16.55-.28 1.23-.28s1.23.13 1.23.28v1.09h1.09c.16 0 .28.55.28 1.23s-.13 1.23-.28 1.23h-1.09v1.09c0 .16-.55.28-1.23.28s-1.23-.13-1.23-.28v-1.09h-1.09c-.16 0-.28-.55-.28-1.23s.13-1.23.28-1.23h1.09zm1.23-7.62c5.49 0 9.94 4.45 9.94 9.94s-4.45 9.94-9.94 9.94-9.94-4.45-9.94-9.94 4.45-9.94 9.94-9.94zm-42.52 0c5.49 0 9.94 4.45 9.94 9.94s-4.45 9.94-9.94 9.94-9.94-4.45-9.94-9.94 4.45-9.94 9.94-9.94zm81.88-72.06c1.93 0 3.5 1.57 3.5 3.5s-1.57 3.5-3.5 3.5-3.5-1.57-3.5-3.5 1.56-3.5 3.5-3.5z" fill-rule="evenodd"/></svg>