<svg enable-background="new 0 0 122.88 100.54" viewBox="0 0 122.88 100.54" xmlns="http://www.w3.org/2000/svg"><path d="m65.98 54.6h-9.08c-.15 0-.27.06-.37.15-.1.1-.15.23-.15.37v19.14c0 .15.06.27.15.37.1.1.23.15.37.15h9.07c.15 0 .27-.06.37-.15.1-.1.15-.23.15-.37v-19.14c0-.15-.06-.27-.15-.37-.09-.11-.22-.15-.36-.15zm-59-40.63h31.49v-9.03c0-1.37.56-2.6 1.45-3.49.9-.89 2.14-1.45 3.49-1.45h36.06c1.37 0 2.59.56 3.49 1.45.89.89 1.45 2.14 1.45 3.49v9.03h31.49c1.93 0 3.67.79 4.92 2.06 1.27 1.27 2.06 3.01 2.06 4.92v16.86c-7.89 5.41-16.03 10.02-24.42 13.78-8.44 3.78-17.14 6.71-26.14 8.73v-6.74c0-1.54-.63-2.96-1.64-3.98-1.01-1.01-2.43-1.64-3.98-1.64h-10.53c-1.54 0-2.96.63-3.98 1.64-1.01 1.01-1.64 2.43-1.64 3.98v6.59c-8.76-2.01-17.25-4.89-25.48-8.58-8.62-3.86-16.97-8.63-25.07-14.23v-16.41c0-1.93.79-3.67 2.06-4.92 1.26-1.27 3.01-2.06 4.92-2.06zm115.9 33.84v45.76c0 1.93-.79 3.67-2.06 4.92-1.27 1.27-3.01 2.06-4.92 2.06h-108.92c-1.93 0-3.67-.79-4.92-2.06-1.27-1.27-2.06-3.01-2.06-4.92v-46.18c6.89 4.42 13.98 8.28 21.27 11.55 9.41 4.22 19.17 7.45 29.29 9.61v7.25c0 1.54.63 2.96 1.64 3.98 1.01 1.01 2.44 1.64 3.98 1.64h10.53c1.54 0 2.96-.63 3.98-1.64 1.01-1.01 1.64-2.43 1.64-3.98v-7.6l.11.46c10.31-2.17 20.25-5.43 29.83-9.73 7.06-3.16 13.93-6.88 20.61-11.12zm-47.17-41.08h-28.52c-.17 0-.31.06-.44.19-.1.1-.19.27-.19.44v6.42h29.75v-6.42c0-.17-.06-.31-.19-.44-.1-.1-.27-.19-.44-.19z"/></svg>