<svg enable-background="new 0 0 122.88 121.67" viewBox="0 0 122.88 121.67" xmlns="http://www.w3.org/2000/svg"><path clip-rule="evenodd" d="m46.06 83.53h30.75v33.29h34.89v-65.42h-99.8v65.42h34.16zm-7.76-27.48h46.29c2.24 0 4.07 1.83 4.07 4.07v14c0 2.24-1.83 4.07-4.07 4.07h-46.29c-2.24 0-4.07-1.83-4.07-4.07v-14c-.01-2.24 1.83-4.07 4.07-4.07zm13.01 8.38h-3.29v-1.01c0-.47-.04-.77-.13-.9-.08-.13-.22-.19-.42-.19-.21 0-.37.09-.48.26s-.16.43-.16.79c0 .45.06.8.19 1.03.12.23.45.51 1 .83 1.57.94 2.56 1.71 2.97 2.31s.62 1.57.62 2.9c0 .97-.12 1.69-.34 2.15-.23.46-.66.85-1.32 1.16-.65.31-1.41.47-2.27.47-.95 0-1.76-.18-2.43-.54s-1.11-.82-1.32-1.37c-.21-.56-.31-1.35-.31-2.37v-.89h3.29v1.66c0 .51.05.84.14.99s.26.22.49.22.41-.09.53-.28c.11-.18.17-.46.17-.82 0-.8-.11-1.33-.33-1.57-.23-.26-.78-.68-1.66-1.26s-1.46-1.01-1.75-1.27c-.28-.26-.52-.63-.71-1.1s-.28-1.06-.28-1.79c0-1.04.13-1.81.4-2.29s.7-.86 1.29-1.13 1.31-.41 2.15-.41c.92 0 1.7.15 2.35.45s1.08.67 1.29 1.13c.21.45.32 1.22.32 2.3zm9.56-4.14v13.65h-3.55v-5.73h-1.03v5.73h-3.55v-13.65h3.55v4.88h1.03v-4.88zm9.52 8c0 1.37-.03 2.34-.1 2.91-.06.57-.26 1.09-.6 1.56s-.8.83-1.38 1.09c-.58.25-1.25.38-2.02.38-.73 0-1.38-.12-1.96-.36s-1.05-.6-1.4-1.07c-.35-.48-.56-1-.63-1.56s-.1-1.55-.1-2.95v-2.33c0-1.37.03-2.34.1-2.91.06-.57.26-1.09.6-1.56s.8-.83 1.38-1.09c.58-.25 1.25-.38 2.02-.38.73 0 1.38.12 1.96.36s1.05.6 1.4 1.07c.35.48.56 1 .63 1.56s.1 1.55.1 2.95zm-3.55-4.48c0-.63-.03-1.04-.1-1.22s-.21-.26-.42-.26c-.18 0-.32.07-.42.22-.09.14-.14.56-.14 1.27v6.37c0 .79.03 1.28.09 1.46.06.19.21.28.44.28.24 0 .39-.11.45-.32.07-.21.1-.72.1-1.52zm4.89-3.52h3.57c.97 0 1.71.07 2.23.23.52.15.91.37 1.17.66s.44.64.53 1.04c.09.41.14 1.04.14 1.89v1.19c0 .87-.09 1.5-.27 1.9s-.51.71-.99.92-1.11.32-1.88.32h-.95v5.5h-3.55zm3.55 2.33v3.48c.1.01.19.01.26.01.32 0 .55-.08.68-.24.12-.16.19-.49.19-1v-1.12c0-.47-.07-.77-.22-.91-.15-.15-.45-.22-.91-.22zm-68.22-8.9h-4.64-2.42v-2.42-14.83-1.56l1.44-.64 57.68-33.83.98-.44.97.43 60.36 34.8 1.45.64v1.57 13.86 2.42h-2.42-3.91v65.53 2.42h-2.42-104.65-2.42v-2.42z" fill-rule="evenodd"/></svg>