<svg viewBox="0 0 122.88 105.19" xmlns="http://www.w3.org/2000/svg"><path d="m10.17 55.2c-11-5.58-9.72-11.8 1.31-11.15l2.52 4.63 5-15.83c1.66-5.18 4.25-10 8.83-11.42v-15.86a5.58 5.58 0 0 1 5.61-5.57h56a5.58 5.58 0 0 1 5.56 5.57v15.43h1c6.53 0 10.29 5.54 11.87 11.87l3.82 15.35 2.2-4.14c11.34-.66 12.35 5.93.35 11.62l2 3c7.89 8.11 7.15 16.21 5.92 36.24v6.58a3.72 3.72 0 0 1 -3.71 3.71h-15.88a3.72 3.72 0 0 1 -3.71-3.71v-3h-74.86v3a3.72 3.72 0 0 1 -3.71 3.71h-15.79a3.72 3.72 0 0 1 -3.71-3.71v-8.59a5.46 5.46 0 0 1 0-.58c-1.16-15.35-2.85-29.23 9.38-37.15zm29.4-34.2h5v-11.25h3.66v-4h-12.32v4h3.66zm8.73 0h5.31l.46-2h4.16l.46 2h5.31l-4-15.25h-7.8zm16.7 0h5.34l1.66-4h.23l1.68 4h5.59l-3.28-7.63 3.51-7.62h-5.49l-1.74 4.18h-.25l-1.74-4.21h-5.73l3.43 7.77zm16.92 0h5v-15.28h-5zm7.72 6.23h-56.58c-5 0-7.52 4.31-9 9.05l-4.83 15.89h86.82l-3.83-15.92c-1-4.85-4.07-9-9-9zm-33.64-16.67-1 4.44h2.3l-1-4.42zm-25.62 62.87-14.06-1.77c-3.32-.37-4.21 1-3.08 3.89l1.52 3.69a5.33 5.33 0 0 0 1.9 2.12 6.43 6.43 0 0 0 3.15.87l12.54.1c3 0 4.34-1.22 3.39-4a6.78 6.78 0 0 0 -5.36-4.9zm62.12 0 14.06-1.77c3.32-.37 4.21 1 3.08 3.89l-1.52 3.69a5.33 5.33 0 0 1 -1.9 2.12 6.43 6.43 0 0 1 -3.15.87l-12.54.1c-3 0-4.34-1.22-3.39-4a6.78 6.78 0 0 1 5.36-4.9z" fill-rule="evenodd"/></svg>