<svg viewBox="0 0 122.88 73.14" xmlns="http://www.w3.org/2000/svg"><path d="m41.63 58.19a12.9 12.9 0 1 0 25.64 2 13.7 13.7 0 0 0 -.16-2h22.17a14.22 14.22 0 0 0 -.12 1.87 13.08 13.08 0 0 0 26.16 0 12.7 12.7 0 0 0 -.21-2.33 8 8 0 0 0 7.77-7.93v-25.66l-16.27-17.5h-22.29v38.87h-80a3.27 3.27 0 0 0 -3.32 3.17v6.32a3.27 3.27 0 0 0 3.31 3.2h3.63a12.48 12.48 0 0 0 -.16 2 12.9 12.9 0 1 0 25.79 0 13.7 13.7 0 0 0 -.16-2h8.22zm34.85-58.19h-72.38a4.12 4.12 0 0 0 -4.1 4.1v38.17h80.58v-38.17a4.11 4.11 0 0 0 -4.1-4.1zm-60.77 60.26c0 6.53 9.92 6.53 9.92 0 0-7-9.92-6.27-9.92 0zm81.49-.21c0 6.61 10.06 6.61 10.06 0s-10.06-6.65-10.06 0zm9.33-45.85 8.21 9.8v3.56h-22.25v-13.36zm-57.11 46.06c0 6.53 9.92 6.53 9.92 0s-9.92-6.52-9.92 0z" fill-rule="evenodd"/></svg>