<svg viewBox="0 0 122.88 105.01" xmlns="http://www.w3.org/2000/svg"><path d="m100.86 56.77c8.18 5.19 15.58 7.64 21.92 7.06 1.11 22.42-7.17 35.66-21.84 41.18-14.16-5.17-22.54-17.84-21.94-41.52a31.35 31.35 0 0 0 21.84-6.72zm.24 7.81c5.53 3.51 10.53 5.17 14.82 4.78.75 15.15-4.85 24.11-14.77 27.84l-.18-.07v-32.45zm-.23-4.86c7.18 4.55 13.67 6.71 19.24 6.2 1 19.67-6.29 31.29-19.17 36.14-12.43-4.54-19.79-15.66-19.24-36.44a27.52 27.52 0 0 0 19.17-5.9zm-66.58-9c-1.86-3-5.36-7-5.36-10.47a5.61 5.61 0 0 1 3.77-5.1c-.18-2.94-.3-5.92-.3-8.87 0-1.75 0-3.52.1-5.25a12.37 12.37 0 0 1 .59-2.63 18.65 18.65 0 0 1 8.34-10.61 23.45 23.45 0 0 1 4.57-2.16c2.86-1 1.48-5.56 4.61-5.63 7.29-.19 19.39 6.22 24.06 11.32a17.11 17.11 0 0 1 4.8 11.46l-.3 12.84a4.24 4.24 0 0 1 3.09 2.64c1 4.06-3.21 9.1-5.16 12.33-1.81 3-8.7 11.1-8.71 11.16a2.62 2.62 0 0 0 .62 1.5 17.14 17.14 0 0 0 3.45 3.51c.68 13.37 3.91 23.6 9.25 31.18h-81.71c0-29.28 31.47-19.94 42.16-34.69.53-.77.77-1.19.76-1.53 0-.19-7.92-9.89-8.63-11z" fill-rule="evenodd"/></svg>